<svg width="109" height="115" viewBox="0 0 109 115" fill="none" xmlns="http://www.w3.org/2000/svg">
<path d="M15.26 58.5088L1.635 44.9374C0.545 43.8517 0 42.585 0 41.1374C0 39.6898 0.545 38.4231 1.635 37.3374L15.26 23.7659C16.35 22.6802 17.6217 22.1374 19.075 22.1374C20.5283 22.1374 21.8 22.6802 22.89 23.7659L36.515 37.3374C37.605 38.4231 38.15 39.6898 38.15 41.1374C38.15 42.585 37.605 43.8517 36.515 44.9374L22.89 58.5088C21.8 59.5945 20.5283 60.1374 19.075 60.1374C17.6217 60.1374 16.35 59.5945 15.26 58.5088ZM43.6 114.423C42.0558 114.423 40.7624 113.902 39.7196 112.86C38.6768 111.817 38.1536 110.529 38.15 108.994V87.2802C33.6083 86.9183 29.1121 86.4207 24.6612 85.7874C20.2104 85.154 15.7596 84.3397 11.3087 83.3445C9.76458 82.9826 8.51653 82.1231 7.5646 80.7659C6.61267 79.4088 6.36197 77.9612 6.8125 76.4231C7.26303 74.885 8.19498 73.754 9.60835 73.0302C11.0217 72.3064 12.4968 72.1255 14.0337 72.4874C20.6646 74.0255 27.3644 75.0659 34.1333 75.6088C40.9022 76.1516 47.6911 76.4231 54.5 76.4231C61.3089 76.4231 68.0996 76.1516 74.8721 75.6088C81.6446 75.0659 88.3427 74.0255 94.9662 72.4874C96.5104 72.1255 97.9874 72.3064 99.3971 73.0302C100.807 73.754 101.737 74.885 102.188 76.4231C102.638 77.9612 102.389 79.4088 101.441 80.7659C100.493 82.1231 99.2427 82.9826 97.6912 83.3445C93.2404 84.3397 88.7896 85.154 84.3388 85.7874C79.8879 86.4207 75.3917 86.9183 70.85 87.2802V108.994C70.85 110.533 70.3286 111.823 69.2859 112.865C68.2431 113.907 66.9478 114.427 65.4 114.423H43.6ZM54.5 32.9945C49.9583 32.9945 46.0979 31.4112 42.9187 28.2445C39.7396 25.0779 38.15 21.2326 38.15 16.7088C38.15 12.185 39.7396 8.33976 42.9187 5.17309C46.0979 2.00643 49.9583 0.423096 54.5 0.423096C59.0417 0.423096 62.9021 2.00643 66.0812 5.17309C69.2604 8.33976 70.85 12.185 70.85 16.7088C70.85 21.2326 69.2604 25.0779 66.0812 28.2445C62.9021 31.4112 59.0417 32.9945 54.5 32.9945ZM54.5 70.9945C51.5025 70.9945 48.9374 69.9323 46.8046 67.8079C44.6718 65.6836 43.6036 63.1267 43.6 60.1374C43.5964 57.148 44.6646 54.593 46.8046 52.4722C48.9446 50.3515 51.5098 49.2875 54.5 49.2802C57.4902 49.273 60.0572 50.337 62.2008 52.4722C64.3445 54.6075 65.4109 57.1625 65.4 60.1374C65.3891 63.1122 64.3227 65.6691 62.2008 67.8079C60.079 69.9468 57.512 71.009 54.5 70.9945ZM80.5237 57.4231L74.2562 46.5659C73.8021 45.7517 73.575 44.8469 73.575 43.8517C73.575 42.8564 73.8021 41.9517 74.2562 41.1374L80.5237 30.2802C80.9779 29.3755 81.6137 28.6969 82.4312 28.2445C83.2487 27.7921 84.1571 27.5659 85.1562 27.5659H97.4187C98.4179 27.5659 99.3262 27.7921 100.144 28.2445C100.961 28.6969 101.597 29.3755 102.051 30.2802L108.319 41.1374C108.773 41.9517 109 42.8564 109 43.8517C109 44.8469 108.773 45.7517 108.319 46.5659L102.051 57.4231C101.597 58.3278 100.961 59.0064 100.144 59.4588C99.3262 59.9112 98.4179 60.1374 97.4187 60.1374H85.1562C84.1571 60.1374 83.2487 59.9112 82.4312 59.4588C81.6137 59.0064 80.9779 58.3278 80.5237 57.4231Z" fill="#CFF9F8"/>
</svg>
