<svg width="60" height="180" viewBox="0 0 60 180" fill="none" xmlns="http://www.w3.org/2000/svg">
<path d="M7.74791 49.4986L8.58535 48.952L7.74791 49.4986ZM20.2615 4.57856C20.4594 4.06294 20.2018 3.48454 19.6862 3.28665L11.2837 0.0619479C10.7681 -0.135939 10.1897 0.121633 9.99182 0.637249C9.79393 1.15287 10.0515 1.73127 10.5671 1.92916L18.036 4.79556L15.1696 12.2644C14.9717 12.78 15.2293 13.3584 15.7449 13.5563C16.2605 13.7542 16.8389 13.4966 17.0368 12.981L20.2615 4.57856ZM52.3857 110.077L53.3789 110.193L52.3857 110.077ZM34.8964 161L35.6374 160.329L34.8964 161ZM15.8101 119.767L16.7079 120.207L15.8101 119.767ZM7.74791 49.4986L8.58535 48.952C3.59928 41.3117 1.86928 34.7917 1.99818 29.3325C2.12707 23.8741 4.11664 19.379 6.73752 15.7916C9.36423 12.1963 12.6168 9.52596 15.2279 7.75025C16.5307 6.86429 17.6664 6.20601 18.473 5.77082C18.8761 5.55334 19.1965 5.39189 19.4137 5.28585C19.5222 5.23285 19.605 5.19371 19.6593 5.16839C19.6865 5.15573 19.7066 5.14651 19.7193 5.14074C19.7256 5.13787 19.7301 5.13585 19.7327 5.13468C19.734 5.1341 19.7348 5.13373 19.7351 5.13358C19.7353 5.1335 19.7352 5.13356 19.7353 5.13352C19.735 5.13362 19.7347 5.13378 19.3279 4.22026C18.9211 3.30673 18.9205 3.307 18.9198 3.30732C18.9194 3.3075 18.9185 3.30788 18.9177 3.30823C18.9161 3.30895 18.9141 3.30988 18.9115 3.31103C18.9064 3.31334 18.8994 3.31651 18.8904 3.32058C18.8726 3.32869 18.8473 3.34031 18.8148 3.35545C18.7498 3.38571 18.6561 3.43007 18.5362 3.48858C18.2965 3.60562 17.952 3.7794 17.5234 4.01066C16.6665 4.47299 15.471 5.16625 14.1032 6.09644C11.3732 7.95305 7.92682 10.7735 5.12259 14.6118C2.31253 18.4581 0.139137 23.3396 -0.00125938 29.2853C-0.141638 35.2302 1.75275 42.1418 6.91046 50.0451L7.74791 49.4986ZM52.3857 110.077L53.3789 110.193C53.963 105.202 51.7861 99.6034 48.2879 93.9467C44.7706 88.2588 39.811 82.3446 34.5744 76.6738C29.337 71.0022 23.778 65.5274 19.0678 60.7476C14.3228 55.9325 10.491 51.8722 8.58535 48.952L7.74791 49.4986L6.91046 50.0451C8.94816 53.1675 12.9396 57.3783 17.6433 62.1514C22.3818 66.96 27.897 72.3908 33.105 78.0306C38.3138 83.6713 43.1708 89.4745 46.5869 94.9986C50.0222 100.554 51.8955 105.662 51.3925 109.961L52.3857 110.077ZM34.8964 161L35.6374 160.329C29.6739 153.749 23.4626 146.6 19.4861 139.586C15.4963 132.548 13.9075 125.918 16.7079 120.207L15.8101 119.767L14.9122 119.326C11.6633 125.952 13.6596 133.364 17.7463 140.572C21.8463 147.804 28.2029 155.104 34.1555 161.672L34.8964 161ZM15.8101 119.767L16.7079 120.207C18.1266 117.314 20.725 116.077 24.1342 115.714C27.5898 115.345 31.6653 115.901 35.7628 116.442C39.769 116.97 43.8536 117.495 47.0445 116.9C48.6676 116.597 50.1484 115.991 51.287 114.878C52.436 113.754 53.1435 112.204 53.3789 110.193L52.3857 110.077L51.3925 109.961C51.1985 111.618 50.6444 112.709 49.8886 113.448C49.1226 114.197 48.0558 114.677 46.6777 114.934C43.8662 115.458 40.1341 115.001 36.0243 114.459C32.0058 113.929 27.666 113.326 23.9222 113.725C20.1319 114.129 16.7465 115.586 14.9122 119.326L15.8101 119.767ZM34.8964 161L34.1555 161.672C38.2303 166.168 44.4434 170.724 49.5836 174.132C52.1637 175.843 54.4924 177.277 56.1764 178.283C57.0186 178.786 57.7002 179.183 58.172 179.454C58.4079 179.59 58.5914 179.694 58.7164 179.765C58.7789 179.8 58.8268 179.827 58.8593 179.846C58.8755 179.855 58.8879 179.862 58.8963 179.866C58.9005 179.869 58.9038 179.87 58.906 179.872C58.9071 179.872 58.908 179.873 58.9086 179.873C58.9089 179.873 58.9092 179.873 58.9094 179.874C58.9096 179.874 58.9097 179.874 59.3962 179C59.8827 178.126 59.8828 178.126 59.8827 178.126C59.8826 178.126 59.8825 178.126 59.8823 178.126C59.8819 178.126 59.8813 178.126 59.8804 178.125C59.8786 178.124 59.8759 178.123 59.8721 178.12C59.8646 178.116 59.8532 178.11 59.8379 178.101C59.8073 178.084 59.7614 178.058 59.7009 178.024C59.5799 177.956 59.4006 177.854 59.169 177.721C58.7059 177.454 58.034 177.063 57.2023 176.566C55.5384 175.572 53.2371 174.155 50.6888 172.465C45.5723 169.073 39.5355 164.63 35.6374 160.329L34.8964 161Z" fill="#FE5923"/>
</svg>
