<svg width="45" height="41" viewBox="0 0 45 41" fill="none" xmlns="http://www.w3.org/2000/svg">
<path d="M16.7243 11.6483C15.7199 13.1817 14.5731 15.4567 13.284 18.4733C12.9157 17.7233 12.606 17.1192 12.3549 16.6608C12.1038 16.2025 11.7648 15.6733 11.3379 15.0733C10.911 14.4733 10.4841 14.0025 10.0572 13.6608C9.6303 13.3192 9.10296 13.0275 8.47517 12.7858C7.84738 12.5442 7.16518 12.4233 6.42857 12.4233H0.803571C0.569196 12.4233 0.376674 12.3483 0.226004 12.1983C0.0753348 12.0483 0 11.8567 0 11.6233V6.82334C0 6.59001 0.0753348 6.39834 0.226004 6.24834C0.376674 6.09834 0.569196 6.02334 0.803571 6.02334H6.42857C10.6138 6.02334 14.0458 7.89834 16.7243 11.6483ZM45 31.6233C45 31.8567 44.9247 32.0483 44.774 32.1983L36.7383 40.1983C36.5876 40.3483 36.3951 40.4233 36.1607 40.4233C35.9431 40.4233 35.7547 40.3442 35.5957 40.1858C35.4367 40.0275 35.3571 39.84 35.3571 39.6233V34.8233C34.8214 34.8233 34.1099 34.8275 33.2227 34.8358C32.3354 34.8442 31.6574 34.8525 31.1886 34.8608C30.7199 34.8692 30.1088 34.8608 29.3555 34.8358C28.6021 34.8108 28.0078 34.7692 27.5725 34.7108C27.1373 34.6525 26.6016 34.565 25.9654 34.4483C25.3292 34.3317 24.8019 34.1775 24.3834 33.9858C23.9648 33.7942 23.4794 33.5567 22.9269 33.2733C22.3744 32.99 21.8806 32.6567 21.4453 32.2733C21.01 31.89 20.5497 31.4442 20.0642 30.9358C19.5787 30.4275 19.1099 29.8483 18.6579 29.1983C19.6456 27.6483 20.784 25.3733 22.0731 22.3733C22.4414 23.1233 22.7511 23.7275 23.0022 24.1858C23.2533 24.6442 23.5924 25.1733 24.0193 25.7733C24.4461 26.3733 24.873 26.8442 25.2999 27.1858C25.7268 27.5275 26.2542 27.8192 26.882 28.0608C27.5098 28.3025 28.192 28.4233 28.9286 28.4233H35.3571V23.6233C35.3571 23.39 35.4325 23.1983 35.5831 23.0483C35.7338 22.8983 35.9263 22.8233 36.1607 22.8233C36.3616 22.8233 36.5625 22.9067 36.7634 23.0733L44.774 31.0483C44.9247 31.1983 45 31.39 45 31.6233ZM45 9.22334C45 9.45667 44.9247 9.64834 44.774 9.79834L36.7383 17.7983C36.5876 17.9483 36.3951 18.0233 36.1607 18.0233C35.9431 18.0233 35.7547 17.9442 35.5957 17.7858C35.4367 17.6275 35.3571 17.44 35.3571 17.2233V12.4233H28.9286C28.125 12.4233 27.3968 12.5483 26.7439 12.7983C26.091 13.0483 25.5134 13.4233 25.0112 13.9233C24.5089 14.4233 24.082 14.9358 23.7305 15.4608C23.3789 15.9858 23.0022 16.6317 22.6004 17.3983C22.0647 18.4317 21.4118 19.8567 20.6417 21.6733C20.1562 22.7733 19.7419 23.6983 19.3987 24.4483C19.0555 25.1983 18.6035 26.0733 18.0427 27.0733C17.4819 28.0733 16.9461 28.9067 16.4355 29.5733C15.9249 30.24 15.3055 30.9317 14.5773 31.6483C13.8491 32.365 13.0957 32.9358 12.3172 33.3608C11.5388 33.7858 10.6473 34.1358 9.64286 34.4108C8.63839 34.6858 7.56696 34.8233 6.42857 34.8233H0.803571C0.569196 34.8233 0.376674 34.7483 0.226004 34.5983C0.0753348 34.4483 0 34.2567 0 34.0233V29.2233C0 28.99 0.0753348 28.7983 0.226004 28.6483C0.376674 28.4983 0.569196 28.4233 0.803571 28.4233H6.42857C7.23214 28.4233 7.96038 28.2983 8.61328 28.0483C9.26618 27.7983 9.84375 27.4233 10.346 26.9233C10.8482 26.4233 11.2751 25.9108 11.6267 25.3858C11.9782 24.8608 12.3549 24.215 12.7567 23.4483C13.2924 22.415 13.9453 20.99 14.7154 19.1733C15.2009 18.0733 15.6152 17.1483 15.9584 16.3983C16.3016 15.6483 16.7536 14.7733 17.3145 13.7733C17.8753 12.7733 18.411 11.94 18.9216 11.2733C19.4322 10.6067 20.0516 9.91501 20.7799 9.19834C21.5081 8.48167 22.2614 7.91084 23.0399 7.48584C23.8184 7.06084 24.7098 6.71084 25.7143 6.43584C26.7188 6.16084 27.7902 6.02334 28.9286 6.02334H35.3571V1.22334C35.3571 0.990007 35.4325 0.79834 35.5831 0.64834C35.7338 0.49834 35.9263 0.42334 36.1607 0.42334C36.3616 0.42334 36.5625 0.506673 36.7634 0.67334L44.774 8.64834C44.9247 8.79834 45 8.99001 45 9.22334Z" fill="#FE5923" fill-opacity="0.6"/>
</svg>
