<svg width="33" height="33" viewBox="0 0 33 33" fill="none" xmlns="http://www.w3.org/2000/svg">
<path d="M8.82857 32.5714C7.2 32.5714 5.72857 32.4429 4.41429 32.1857C3.1 31.9286 2.17143 31.5143 1.62857 30.9429C1.11429 30.4 0.714286 29.4571 0.428571 28.1143C0.142857 26.7714 0 25.2571 0 23.5714C0 20.2857 0.578857 17.136 1.73657 14.1223C2.89429 11.1086 4.48686 8.57257 6.51429 6.51429C8.54286 4.48571 11.0789 2.89314 14.1223 1.73657C17.1657 0.58 20.3726 0.00114286 23.7429 0C25.3714 0 26.8429 0.128571 28.1571 0.385714C29.4714 0.642857 30.4 1.05714 30.9429 1.62857C31.4571 2.17143 31.8571 3.11429 32.1429 4.45714C32.4286 5.8 32.5714 7.31429 32.5714 9C32.5714 12.2857 31.9931 15.436 30.8366 18.4509C29.68 21.4657 28.0869 24.0011 26.0571 26.0571C24.0286 28.0857 21.4931 29.6789 18.4509 30.8366C15.4086 31.9943 12.2011 32.5726 8.82857 32.5714ZM3.51429 22.8857C4.45714 20.8286 5.6 18.8217 6.94286 16.8651C8.28572 14.9086 9.77143 13.0869 11.4 11.4C13.0286 9.77143 14.8217 8.28572 16.7794 6.94286C18.7371 5.6 20.744 4.45714 22.8 3.51429C20.2 3.6 17.6503 4.136 15.1509 5.12229C12.6514 6.10857 10.6011 7.40114 9 9C7.31429 10.6286 5.99314 12.6714 5.03657 15.1286C4.08 17.5857 3.57257 20.1714 3.51429 22.8857ZM9.77143 29.0571C12.3714 28.9714 14.9217 28.436 17.4223 27.4509C19.9229 26.4657 21.9726 25.1726 23.5714 23.5714C25.2571 21.9429 26.5789 19.9 27.5366 17.4429C28.4943 14.9857 29.0011 12.4 29.0571 9.68571C28.1143 11.7429 26.9714 13.7503 25.6286 15.708C24.2857 17.6657 22.8 19.4869 21.1714 21.1714C19.5429 22.8 17.7503 24.2857 15.7937 25.6286C13.8371 26.9714 11.8297 28.1143 9.77143 29.0571Z" fill="#FE5923" fill-opacity="0.6"/>
</svg>
