<svg width="222" height="223" viewBox="0 0 222 223" fill="none" xmlns="http://www.w3.org/2000/svg">
<g clip-path="url(#clip0_132_1901)">
<path d="M207.861 98.5C202.844 98.5 198.033 96.507 194.485 92.9594C190.937 89.4119 188.944 84.6003 188.944 79.5833C188.944 74.5663 190.937 69.7548 194.485 66.2072C198.033 62.6597 202.844 60.6667 207.861 60.6667C212.878 60.6667 217.69 62.6597 221.237 66.2072C224.785 69.7548 226.778 74.5663 226.778 79.5833C226.778 84.6003 224.785 89.4119 221.237 92.9594C217.69 96.507 212.878 98.5 207.861 98.5ZM170.028 48.0556C165.011 48.0556 160.199 46.0626 156.652 42.515C153.104 38.9674 151.111 34.1559 151.111 29.1389C151.111 24.1219 153.104 19.3103 156.652 15.7628C160.199 12.2152 165.011 10.2222 170.028 10.2222C175.045 10.2222 179.856 12.2152 183.404 15.7628C186.951 19.3103 188.944 24.1219 188.944 29.1389C188.944 34.1559 186.951 38.9674 183.404 42.515C179.856 46.0626 175.045 48.0556 170.028 48.0556ZM106.972 48.0556C101.955 48.0556 97.1437 46.0626 93.5961 42.515C90.0486 38.9674 88.0556 34.1559 88.0556 29.1389C88.0556 24.1219 90.0486 19.3103 93.5961 15.7628C97.1437 12.2152 101.955 10.2222 106.972 10.2222C111.989 10.2222 116.801 12.2152 120.348 15.7628C123.896 19.3103 125.889 24.1219 125.889 29.1389C125.889 34.1559 123.896 38.9674 120.348 42.515C116.801 46.0626 111.989 48.0556 106.972 48.0556ZM69.1389 98.5C64.1219 98.5 59.3103 96.507 55.7628 92.9594C52.2152 89.4119 50.2222 84.6003 50.2222 79.5833C50.2222 74.5663 52.2152 69.7548 55.7628 66.2072C59.3103 62.6597 64.1219 60.6667 69.1389 60.6667C74.1559 60.6667 78.9674 62.6597 82.515 66.2072C86.0626 69.7548 88.0556 74.5663 88.0556 79.5833C88.0556 84.6003 86.0626 89.4119 82.515 92.9594C78.9674 96.507 74.1559 98.5 69.1389 98.5ZM138.5 -15C108.398 -15 79.5288 -3.042 58.2434 18.2434C36.958 39.5288 25 68.3979 25 98.5C25 128.602 36.958 157.471 58.2434 178.757C79.5288 200.042 108.398 212 138.5 212C143.517 212 148.329 210.007 151.876 206.459C155.424 202.912 157.417 198.1 157.417 193.083C157.417 188.165 155.525 183.751 152.498 180.472C149.598 177.067 147.706 172.653 147.706 167.861C147.706 162.844 149.699 158.033 153.247 154.485C156.794 150.937 161.606 148.944 166.623 148.944H188.944C205.668 148.944 221.706 142.301 233.531 130.476C245.357 118.651 252 102.612 252 85.8889C252 30.1478 201.177 -15 138.5 -15Z" fill="white" fill-opacity="0.3"/>
</g>
<defs>
<clipPath id="clip0_132_1901">
<path d="M0 0.195068H202C213.046 0.195068 222 9.14937 222 20.1951V222.195H0V0.195068Z" fill="white"/>
</clipPath>
</defs>
</svg>
