<svg width="223" height="223" viewBox="0 0 223 223" fill="none" xmlns="http://www.w3.org/2000/svg">
<g clip-path="url(#clip0_132_1876)">
<path d="M254 64.2155L124.5 -20L-5.00003 64.2155L124.5 148.42L212.037 91.4955V146.318H233.921V77.2753L254 64.2155Z" fill="white" fill-opacity="0.2"/>
<path d="M47.9047 162.738V122.617L124.5 172.426L201.094 122.617V162.738C201.094 178.83 189.999 191.365 176.442 199.28C162.611 207.358 144.217 212 124.5 212C104.782 212 86.3991 207.358 72.5573 199.28C59 191.365 47.9047 178.83 47.9047 162.738Z" fill="white" fill-opacity="0.2"/>
</g>
<defs>
<clipPath id="clip0_132_1876">
<path d="M0.769989 0H203C214.046 0 223 8.95431 223 20V222.23H0.769989V0Z" fill="white"/>
</clipPath>
</defs>
</svg>
