<svg width="68" height="75" viewBox="0 0 68 75" fill="none" xmlns="http://www.w3.org/2000/svg">
<path d="M45.2424 30.3595C49.6367 34.7672 53.2208 41.9755 51.1706 46.2506C45.6722 57.7093 4.66048 77.7921 1.16913 74.319C-2.30985 70.849 17.8404 29.9184 29.3226 24.4312C33.6149 22.3955 40.8388 26.0043 45.2548 30.3533L45.2393 30.3965L45.2424 30.3595ZM66.976 25.5293C66.2616 22.8921 64.4371 20.2333 61.7188 19.9156C56.74 19.3419 48.8822 28.1294 49.4388 30.2145C49.9985 32.3428 61.0849 35.9979 65.2102 33.0368C67.3471 31.5131 67.6254 28.2251 66.9296 25.591L66.976 25.5293ZM51.5417 1.17756C55.2464 2.17692 58.9851 4.7185 59.4304 8.52471C60.2376 15.4925 47.8895 26.4731 44.9579 25.6866C42.0263 24.9124 36.8619 9.38835 41.0336 3.59576C43.1828 0.597679 47.84 0.184363 51.5448 1.16522L51.5417 1.17756Z" fill="#FBCE3E" fill-opacity="0.6"/>
</svg>
