<svg width="50" height="51" viewBox="0 0 50 51" fill="none" xmlns="http://www.w3.org/2000/svg">
<path d="M25 0.42334C18.3696 0.42334 12.0107 3.05726 7.32233 7.74567C2.63392 12.4341 0 18.7929 0 25.4233C0 32.0538 2.63392 38.4126 7.32233 43.101C12.0107 47.7894 18.3696 50.4233 25 50.4233C31.6304 50.4233 37.9893 47.7894 42.6777 43.101C47.3661 38.4126 50 32.0538 50 25.4233C50 18.7929 47.3661 12.4341 42.6777 7.74567C37.9893 3.05726 31.6304 0.42334 25 0.42334ZM15.9125 5.51709L23.4438 9.91084V15.2233L14.7906 21.3233L9.91562 19.5515L7.95937 11.7015C10.0931 9.04929 12.8164 6.93168 15.9125 5.51709ZM3.23125 27.5858L8.94063 22.5233L13.7719 24.2765L17.0375 34.5577L14.7969 37.9108H7.0375C4.90469 34.8523 3.59399 31.2969 3.23125 27.5858ZM19.9156 46.7046L17.3687 39.6858L19.5875 36.364H30.4219L32.6437 39.6858L30.0969 46.7015C26.7504 47.5022 23.2621 47.5054 19.9156 46.7046ZM42.9625 37.9077H35.2188L32.9688 34.5483L36.1719 24.2765L41.0688 22.514L46.7687 27.5827C46.406 31.2937 45.0953 34.8492 42.9625 37.9077ZM42.0563 11.7202L40.1 19.5421L35.15 21.3233L26.5656 15.2233V9.91084L34.0938 5.51709C37.1952 6.93581 39.9219 9.06006 42.0563 11.7202Z" fill="#4E61BF" fill-opacity="0.6"/>
</svg>
