<?xml version="1.0" encoding="UTF-8"?>
<svg id="Layer_1" xmlns="http://www.w3.org/2000/svg" version="1.1" viewBox="0 300 3500 750">
  <!-- Generator: Adobe Illustrator 29.1.0, SVG Export Plug-In . SVG Version: 2.1.0 Build 142)  -->
  <defs>
    <style>
      .st0 {
        fill: #5262ad;
      }

      .st1 {
        fill: #fbc017;
      }
    </style>
  </defs>
  <path class="st0" d="M149.11,490.39c-10.09,89.38,15.4,242.69,39.84,332.07,24.43-89.38,28.15-242.69,18.06-332.07,40.37,12.41,92.95,12.41,132.79,0-10.09,89.38-6.37,242.69,18.06,332.07,24.43-89.38,49.93-242.69,39.84-332.07,38.77,12.41,100.39,12.41,139.16,0-15.93,142.76-90.3,285.52-74.36,428.28-39.31-12.41-140.75-12.41-175.81,0,5.84-52.76-1.06-80.07-13.28-132.83-12.22,52.76-19.12,80.07-13.28,132.83-35.06-12.41-136.51-12.41-175.81,0,15.93-142.76-58.43-285.52-74.36-428.28,38.77,12.41,100.39,12.41,139.16,0Z"/>
  <path class="st0" d="M580.93,490.39c39.31,12.41,162,12.41,197.06,0,0,142.76,63.74,285.52,79.67,428.28-38.77-12.41-99.86-12.41-138.63,0,10.09-88.14-19.65-256.97-43.55-346.97-.53-1.24,4.78-2.48,4.25-3.72-.53,1.24,4.78,2.48,4.25,3.72-23.9,90-54.18,258.83-44.09,346.97-38.77-12.41-99.86-12.41-138.63,0,15.93-142.76,79.67-285.52,79.67-428.28ZM728.59,741.77c-2.66,24.21-2.66,59.59,0,83.79-32.93-9.93-66.39-9.93-99.32,0,2.66-24.21,2.66-59.59,0-83.79,32.93,9.93,66.39,9.93,99.32,0Z"/>
  <path class="st0" d="M868.27,490.39c38.77,12.41,94.01,12.41,132.79,0-15.93,142.76-15.93,285.52,0,428.28-38.77-12.41-94.01-12.41-132.79,0,15.93-142.76,15.93-285.52,0-428.28ZM1108.35,892.6c-20.71-3.1-49.4,22.34-70.64,26.07-.53-90.62-94.01-302.28-108.89-407.8,20.71,3.1,50.99-16.76,72.24-20.48,2.66,110.48,79.67,244.55,107.29,402.21ZM1037.71,490.39c38.77,12.41,94.01,12.41,132.79,0-15.93,142.76-15.93,285.52,0,428.28-38.77-12.41-94.01-12.41-132.79,0,15.93-142.76,15.93-285.52,0-428.28Z"/>
  <path class="st0" d="M1181.11,490.39c67.46,21.72,120.57-6.21,183.25-6.21,166.25,0,164.12,440.69,2.66,440.69-88.7,0-117.91-27.93-185.9-6.21,15.93-142.76,15.93-285.52,0-428.28ZM1333.55,581.01c-18.59,0-34.52,60.83-34.52,130.35s15.93,129.73,34.52,129.73,35.06-59.59,35.06-129.73-15.93-130.35-35.06-130.35Z"/>
  <path class="st0" d="M1499.26,490.39c63.74,12.41,173.69,12.41,235.3,0-5.84,24.21-5.84,70.14,0,94.35-36.65-5.59-72.77-8.07-109.42-7.45-6.37,91.86-6.91,162.62,0,254.49,36.65.62,72.77-1.86,109.42-7.45-5.84,24.21-5.84,70.14,0,94.35-57.9-12.41-179.53-12.41-235.3,0,15.93-142.76,15.93-285.52,0-428.28ZM1702.69,655.49c-5.84,24.21-5.84,68.28,0,92.48-65.86-9.93-97.2-9.93-163.06,0,5.84-24.21,5.84-68.28,0-92.48,65.86,9.93,97.2,9.93,163.06,0Z"/>
  <path class="st0" d="M1745.18,490.39c.53,0,1.59.62,2.13.62,8.5,2.48,18.06,4.97,28.15,6.21,53.65,6.83,99.86-13.03,152.97-13.03,63.74,0,107.29,57.1,107.29,134.69,0,103.04-51.52,169.45-168.91,158.9,1.59,50.28,5.31,90.62,11.15,140.9-38.77-12.41-94.01-12.41-132.79,0,15.93-142.76,15.93-285.52,0-428.28ZM1858.32,780.87c14.34-6.21-15.93-48.41-1.06-54.62,18.59-8.07,66.92,1.86,86.05-6.21,73.3,0,95.61,117.31,101.45,198.62-40.9-12.41-96.14-12.41-132.79,0-3.72-60.21-14.34-137.79-53.65-137.79ZM1894.43,566.73c-13.28,0-24.43,29.17-24.43,63.31s11.15,62.07,24.43,62.07c14.34,0,25.5-28.55,25.5-62.07s-11.15-63.31-25.5-63.31Z"/>
  <path class="st1" d="M2188.15,490.39c38.77,12.41,94.01,12.41,132.79,0-15.93,142.76-15.93,285.52,0,428.28-38.77-12.41-94.01-12.41-132.79,0,15.93-142.76,15.93-285.52,0-428.28ZM2428.23,892.6c-20.71-3.1-49.4,22.34-70.64,26.07-.53-90.62-94.01-302.28-108.88-407.8,20.71,3.1,50.99-16.76,72.24-20.48,2.66,110.48,79.67,244.55,107.29,402.21ZM2357.59,490.39c38.77,12.41,94.01,12.41,132.79,0-15.93,142.76-15.93,285.52,0,428.28-38.77-12.41-94.01-12.41-132.79,0,15.93-142.76,15.93-285.52,0-428.28Z"/>
  <path class="st1" d="M2664.59,484.18c89.76,0,163.06,99.31,163.06,220.35s-73.3,220.35-163.06,220.35-163.59-98.69-163.59-220.35,73.83-220.35,163.59-220.35ZM2664.59,847.29c17.53,0,31.87-64.55,31.87-142.76s-14.34-142.76-31.87-142.76-31.87,66.41-31.87,142.76,14.34,142.76,31.87,142.76Z"/>
  <path class="st1" d="M3001.86,484.18c89.76,0,163.06,99.31,163.06,220.35s-73.3,220.35-163.06,220.35-163.59-98.69-163.59-220.35,73.83-220.35,163.59-220.35ZM3001.86,847.29c17.53,0,31.87-64.55,31.87-142.76s-14.34-142.76-31.87-142.76-31.87,66.41-31.87,142.76,14.34,142.76,31.87,142.76Z"/>
  <path class="st1" d="M3175.54,490.39c38.77,12.41,94.01,12.41,132.79,0-15.93,142.76-15.93,285.52,0,428.28-38.77-12.41-94.01-12.41-132.79,0,15.93-142.76,15.93-285.52,0-428.28ZM3251.49,720.05l120.04-42.83c14.87,59.59,64.8,170.07,122.16,241.45-38.77-12.41-107.82-12.41-146.6,0-30.28-90.62-61.61-150.83-95.61-198.62ZM3492.63,490.39c-55.24,79.45-91.89,166.97-125.88,247.66l-97.73-29.79c36.65-50.9,75.95-129.1,86.58-217.86,38.77,12.41,98.26,12.41,137.04,0Z"/>
</svg>