<svg width="35" height="34" viewBox="0 0 35 34" fill="none" xmlns="http://www.w3.org/2000/svg">
<g clip-path="url(#clip0_132_2069)">
<path d="M17.2963 3.44699C21.7751 3.44699 22.3063 3.46376 24.0761 3.54484C28.622 3.75173 30.7454 5.90868 30.9523 10.4211C31.0334 12.1894 31.0488 12.7206 31.0488 17.1995C31.0488 21.6797 31.032 22.2095 30.9523 23.9779C30.744 28.4861 28.6262 30.6472 24.0761 30.8541C22.3063 30.9352 21.7779 30.952 17.2963 30.952C12.8174 30.952 12.2862 30.9352 10.5179 30.8541C5.96075 30.6458 3.84854 28.4791 3.64165 23.9765C3.56057 22.2081 3.54379 21.6783 3.54379 17.1981C3.54379 12.7192 3.56197 12.1894 3.64165 10.4197C3.84993 5.90868 5.96774 3.75033 10.5179 3.54344C12.2876 3.46376 12.8174 3.44699 17.2963 3.44699ZM17.2963 0.42334C12.7405 0.42334 12.1702 0.44291 10.3809 0.523988C4.28887 0.803567 0.903171 4.18368 0.623592 10.2813C0.541116 12.072 0.521545 12.6423 0.521545 17.1981C0.521545 21.7538 0.541116 22.3256 0.622194 24.1149C0.901773 30.2069 4.28188 33.5926 10.3795 33.8722C12.1702 33.9532 12.7405 33.9728 17.2963 33.9728C21.852 33.9728 22.4238 33.9532 24.2131 33.8722C30.2995 33.5926 33.6936 30.2125 33.969 24.1149C34.0514 22.3256 34.071 21.7538 34.071 17.1981C34.071 12.6423 34.0514 12.072 33.9704 10.2827C33.6964 4.19626 30.3121 0.804965 24.2145 0.525386C22.4238 0.44291 21.852 0.42334 17.2963 0.42334ZM17.2963 8.58425C12.5392 8.58425 8.68246 12.441 8.68246 17.1981C8.68246 21.9551 12.5392 25.8133 17.2963 25.8133C22.0533 25.8133 25.9101 21.9565 25.9101 17.1981C25.9101 12.441 22.0533 8.58425 17.2963 8.58425ZM17.2963 22.7897C14.2083 22.7897 11.7047 20.2874 11.7047 17.1981C11.7047 14.1101 14.2083 11.6065 17.2963 11.6065C20.3842 11.6065 22.8879 14.1101 22.8879 17.1981C22.8879 20.2874 20.3842 22.7897 17.2963 22.7897ZM26.2512 6.23159C25.1385 6.23159 24.2368 7.13323 24.2368 8.24456C24.2368 9.35589 25.1385 10.2575 26.2512 10.2575C27.3625 10.2575 28.2628 9.35589 28.2628 8.24456C28.2628 7.13323 27.3625 6.23159 26.2512 6.23159Z" fill="#1E1E1E"/>
</g>
<defs>
<clipPath id="clip0_132_2069">
<rect width="33.5495" height="33.5495" fill="white" transform="translate(0.521545 0.42334)"/>
</clipPath>
</defs>
</svg>
