<svg width="35" height="34" viewBox="0 0 35 34" fill="none" xmlns="http://www.w3.org/2000/svg">
<g clip-path="url(#clip0_132_2073)">
<path d="M27.1805 0.42334H7.60996C3.75037 0.42334 0.620483 3.55323 0.620483 7.41281V26.9833C0.620483 30.8429 3.75037 33.9728 7.60996 33.9728H27.1805C31.0415 33.9728 34.17 30.8429 34.17 26.9833V7.41281C34.17 3.55323 31.0415 0.42334 27.1805 0.42334ZM11.8036 26.9833H7.60996V11.6065H11.8036V26.9833ZM9.7068 9.83397C8.35643 9.83397 7.26048 8.72963 7.26048 7.36808C7.26048 6.00653 8.35643 4.90219 9.7068 4.90219C11.0572 4.90219 12.1531 6.00653 12.1531 7.36808C12.1531 8.72963 11.0586 9.83397 9.7068 9.83397ZM28.5784 26.9833H24.3847V19.1495C24.3847 14.4414 18.7931 14.7979 18.7931 19.1495V26.9833H14.5994V11.6065H18.7931V14.0738C20.7446 10.4588 28.5784 10.1918 28.5784 17.535V26.9833Z" fill="#1E1E1E"/>
</g>
<defs>
<clipPath id="clip0_132_2073">
<rect width="33.5495" height="33.5495" fill="white" transform="translate(0.620483 0.42334)"/>
</clipPath>
</defs>
</svg>
