<svg width="1440" height="335" viewBox="0 0 1440 335" fill="none" xmlns="http://www.w3.org/2000/svg">
<g clip-path="url(#clip0_457_3845)">
<rect width="1440" height="335" fill="#FE5923"/>
<g opacity="0.28">
<path d="M33.7615 162.084C32.2143 164.446 30.4478 167.951 28.4622 172.597C27.8949 171.442 27.4178 170.512 27.031 169.806C26.6442 169.1 26.122 168.284 25.4644 167.36C24.8069 166.436 24.1493 165.711 23.4917 165.184C22.8341 164.658 22.0218 164.209 21.0548 163.837C20.0878 163.464 19.037 163.278 17.9023 163.278H9.23779C8.87677 163.278 8.58021 163.163 8.34813 162.932C8.11604 162.701 8 162.405 8 162.046V154.652C8 154.293 8.11604 153.998 8.34813 153.767C8.58021 153.535 8.87677 153.42 9.23779 153.42H17.9023C24.3491 153.42 29.6355 156.308 33.7615 162.084ZM77.3162 192.853C77.3162 193.213 77.2002 193.508 76.9681 193.739L64.5902 206.062C64.3581 206.293 64.0615 206.408 63.7005 206.408C63.3653 206.408 63.0752 206.286 62.8302 206.043C62.5852 205.799 62.4627 205.51 62.4627 205.176V197.782C61.6375 197.782 60.5416 197.789 59.1749 197.802C57.8081 197.814 56.7637 197.827 56.0417 197.84C55.3197 197.853 54.3784 197.84 53.218 197.802C52.0576 197.763 51.1421 197.699 50.4716 197.609C49.8012 197.519 48.976 197.384 47.9961 197.205C47.0162 197.025 46.2039 196.788 45.5592 196.492C44.9145 196.197 44.1667 195.831 43.3157 195.395C42.4647 194.958 41.704 194.445 41.0335 193.854C40.363 193.264 39.6539 192.577 38.9061 191.794C38.1582 191.011 37.4362 190.119 36.7399 189.118C38.2614 186.73 40.0149 183.226 42.0005 178.605C42.5678 179.76 43.0449 180.691 43.4317 181.397C43.8185 182.103 44.3407 182.918 44.9983 183.842C45.6559 184.766 46.3134 185.492 46.971 186.018C47.6286 186.544 48.4409 186.993 49.4079 187.366C50.3749 187.738 51.4258 187.924 52.5604 187.924H62.4627V180.53C62.4627 180.171 62.5788 179.876 62.8109 179.645C63.0429 179.414 63.3395 179.298 63.7005 179.298C64.01 179.298 64.3194 179.426 64.6289 179.683L76.9681 191.967C77.2002 192.199 77.3162 192.494 77.3162 192.853ZM77.3162 158.349C77.3162 158.709 77.2002 159.004 76.9681 159.235L64.5902 171.558C64.3581 171.789 64.0615 171.904 63.7005 171.904C63.3653 171.904 63.0752 171.782 62.8302 171.538C62.5852 171.295 62.4627 171.006 62.4627 170.672V163.278H52.5604C51.3226 163.278 50.2009 163.471 49.1952 163.856C48.1895 164.241 47.2998 164.819 46.5262 165.589C45.7526 166.359 45.095 167.148 44.5535 167.957C44.0119 168.766 43.4317 169.761 42.8128 170.942C41.9876 172.533 40.9819 174.728 39.7957 177.527C39.0479 179.221 38.4096 180.646 37.881 181.801C37.3524 182.956 36.6561 184.304 35.7922 185.845C34.9284 187.385 34.1032 188.669 33.3167 189.695C32.5301 190.722 31.576 191.788 30.4543 192.892C29.3325 193.996 28.1721 194.875 26.973 195.53C25.7739 196.184 24.4007 196.723 22.8535 197.147C21.3062 197.571 19.6559 197.782 17.9023 197.782H9.23779C8.87677 197.782 8.58021 197.667 8.34813 197.436C8.11604 197.205 8 196.909 8 196.55V189.156C8 188.797 8.11604 188.502 8.34813 188.271C8.58021 188.04 8.87677 187.924 9.23779 187.924H17.9023C19.1401 187.924 20.2619 187.731 21.2676 187.346C22.2733 186.961 23.1629 186.384 23.9365 185.613C24.7102 184.843 25.3677 184.054 25.9093 183.245C26.4508 182.437 27.031 181.442 27.6499 180.261C28.4751 178.669 29.4808 176.474 30.667 173.676C31.4148 171.981 32.0531 170.556 32.5817 169.401C33.1104 168.246 33.8066 166.898 34.6705 165.358C35.5344 163.817 36.3596 162.534 37.1461 161.507C37.9326 160.48 38.8867 159.415 40.0085 158.311C41.1302 157.207 42.2906 156.327 43.4897 155.673C44.6889 155.018 46.062 154.479 47.6093 154.055C49.1565 153.632 50.8069 153.42 52.5604 153.42H62.4627V146.026C62.4627 145.667 62.5788 145.372 62.8109 145.141C63.0429 144.909 63.3395 144.794 63.7005 144.794C64.01 144.794 64.3194 144.922 64.6289 145.179L76.9681 157.463C77.2002 157.694 77.3162 157.99 77.3162 158.349Z" fill="white" fill-opacity="0.29"/>
<path d="M406.761 183.291C405.214 185.652 403.448 189.157 401.462 193.804C400.895 192.648 400.418 191.718 400.031 191.012C399.644 190.306 399.122 189.49 398.464 188.566C397.807 187.642 397.149 186.917 396.492 186.391C395.834 185.864 395.022 185.415 394.055 185.043C393.088 184.67 392.037 184.484 390.902 184.484H382.238C381.877 184.484 381.58 184.369 381.348 184.138C381.116 183.907 381 183.611 381 183.252V175.858C381 175.499 381.116 175.204 381.348 174.973C381.58 174.742 381.877 174.626 382.238 174.626H390.902C397.349 174.626 402.636 177.514 406.761 183.291ZM450.316 214.059C450.316 214.419 450.2 214.714 449.968 214.945L437.59 227.268C437.358 227.499 437.062 227.614 436.701 227.614C436.365 227.614 436.075 227.492 435.83 227.249C435.585 227.005 435.463 226.716 435.463 226.382V218.988C434.638 218.988 433.542 218.995 432.175 219.008C430.808 219.02 429.764 219.033 429.042 219.046C428.32 219.059 427.378 219.046 426.218 219.008C425.058 218.969 424.142 218.905 423.472 218.815C422.801 218.725 421.976 218.59 420.996 218.411C420.016 218.231 419.204 217.994 418.559 217.698C417.914 217.403 417.167 217.037 416.316 216.601C415.465 216.164 414.704 215.651 414.034 215.06C413.363 214.47 412.654 213.783 411.906 213C411.158 212.217 410.436 211.325 409.74 210.324C411.261 207.936 413.015 204.432 415.001 199.811C415.568 200.966 416.045 201.897 416.432 202.603C416.819 203.309 417.341 204.124 417.998 205.048C418.656 205.972 419.313 206.698 419.971 207.224C420.629 207.75 421.441 208.199 422.408 208.572C423.375 208.944 424.426 209.13 425.56 209.13H435.463V201.736C435.463 201.377 435.579 201.082 435.811 200.851C436.043 200.62 436.34 200.504 436.701 200.504C437.01 200.504 437.319 200.632 437.629 200.889L449.968 213.174C450.2 213.405 450.316 213.7 450.316 214.059ZM450.316 179.555C450.316 179.915 450.2 180.21 449.968 180.441L437.59 192.764C437.358 192.995 437.062 193.11 436.701 193.11C436.365 193.11 436.075 192.988 435.83 192.745C435.585 192.501 435.463 192.212 435.463 191.878V184.484H425.56C424.323 184.484 423.201 184.677 422.195 185.062C421.189 185.447 420.3 186.025 419.526 186.795C418.753 187.565 418.095 188.354 417.553 189.163C417.012 189.972 416.432 190.967 415.813 192.148C414.988 193.739 413.982 195.934 412.796 198.733C412.048 200.427 411.41 201.852 410.881 203.007C410.352 204.162 409.656 205.51 408.792 207.051C407.928 208.591 407.103 209.875 406.317 210.902C405.53 211.928 404.576 212.994 403.454 214.098C402.333 215.202 401.172 216.081 399.973 216.736C398.774 217.39 397.401 217.929 395.853 218.353C394.306 218.777 392.656 218.988 390.902 218.988H382.238C381.877 218.988 381.58 218.873 381.348 218.642C381.116 218.411 381 218.116 381 217.756V210.362C381 210.003 381.116 209.708 381.348 209.477C381.58 209.246 381.877 209.13 382.238 209.13H390.902C392.14 209.13 393.262 208.938 394.268 208.552C395.273 208.167 396.163 207.59 396.937 206.82C397.71 206.049 398.368 205.26 398.909 204.451C399.451 203.643 400.031 202.648 400.65 201.467C401.475 199.875 402.481 197.68 403.667 194.882C404.415 193.187 405.053 191.763 405.582 190.607C406.11 189.452 406.807 188.104 407.67 186.564C408.534 185.023 409.36 183.74 410.146 182.713C410.933 181.686 411.887 180.621 413.008 179.517C414.13 178.413 415.291 177.533 416.49 176.879C417.689 176.224 419.062 175.685 420.609 175.261C422.156 174.838 423.807 174.626 425.56 174.626H435.463V167.232C435.463 166.873 435.579 166.578 435.811 166.347C436.043 166.116 436.34 166 436.701 166C437.01 166 437.319 166.128 437.629 166.385L449.968 178.669C450.2 178.901 450.316 179.196 450.316 179.555Z" fill="white" fill-opacity="0.29"/>
<path d="M361.761 26.2905C360.214 28.6524 358.448 32.1567 356.462 36.8035C355.895 35.6482 355.418 34.7176 355.031 34.0116C354.644 33.3056 354.122 32.4905 353.464 31.5663C352.807 30.6421 352.149 29.9168 351.492 29.3905C350.834 28.8642 350.022 28.415 349.055 28.0427C348.088 27.6705 347.037 27.4843 345.902 27.4843H337.238C336.877 27.4843 336.58 27.3688 336.348 27.1377C336.116 26.9067 336 26.6115 336 26.252V18.8583C336 18.4989 336.116 18.2037 336.348 17.9726C336.58 17.7415 336.877 17.626 337.238 17.626H345.902C352.349 17.626 357.636 20.5142 361.761 26.2905ZM405.316 57.0592C405.316 57.4187 405.2 57.7139 404.968 57.9449L392.59 70.2678C392.358 70.4989 392.062 70.6144 391.701 70.6144C391.365 70.6144 391.075 70.4925 390.83 70.2486C390.585 70.0047 390.463 69.7159 390.463 69.3821V61.9884C389.638 61.9884 388.542 61.9948 387.175 62.0076C385.808 62.0205 384.764 62.0333 384.042 62.0462C383.32 62.059 382.378 62.0462 381.218 62.0076C380.058 61.9691 379.142 61.905 378.472 61.8151C377.801 61.7252 376.976 61.5905 375.996 61.4108C375.016 61.2311 374.204 60.9936 373.559 60.6983C372.914 60.4031 372.167 60.0373 371.316 59.6008C370.465 59.1644 369.704 58.6509 369.034 58.0605C368.363 57.47 367.654 56.7833 366.906 56.0002C366.158 55.2172 365.436 54.3251 364.74 53.3239C366.261 50.9363 368.015 47.432 370.001 42.8109C370.568 43.9662 371.045 44.8968 371.432 45.6028C371.819 46.3088 372.341 47.1239 372.998 48.0481C373.656 48.9723 374.313 49.6976 374.971 50.2239C375.629 50.7502 376.441 51.1995 377.408 51.5717C378.375 51.944 379.426 52.1301 380.56 52.1301H390.463V44.7364C390.463 44.3769 390.579 44.0817 390.811 43.8507C391.043 43.6196 391.34 43.5041 391.701 43.5041C392.01 43.5041 392.319 43.6324 392.629 43.8892L404.968 56.1735C405.2 56.4046 405.316 56.6998 405.316 57.0592ZM405.316 22.5552C405.316 22.9146 405.2 23.2098 404.968 23.4409L392.59 35.7638C392.358 35.9948 392.062 36.1103 391.701 36.1103C391.365 36.1103 391.075 35.9884 390.83 35.7445C390.585 35.5006 390.463 35.2118 390.463 34.8781V27.4843H380.56C379.323 27.4843 378.201 27.6769 377.195 28.062C376.189 28.447 375.3 29.0247 374.526 29.7949C373.753 30.565 373.095 31.3545 372.553 32.1632C372.012 32.9719 371.432 33.9667 370.813 35.1476C369.988 36.7393 368.982 38.9343 367.796 41.7327C367.048 43.4271 366.41 44.8519 365.881 46.0072C365.352 47.1624 364.656 48.5102 363.792 50.0506C362.928 51.591 362.103 52.8746 361.317 53.9015C360.53 54.9284 359.576 55.9938 358.454 57.0978C357.333 58.2017 356.172 59.081 354.973 59.7356C353.774 60.3903 352.401 60.9294 350.853 61.353C349.306 61.7766 347.656 61.9884 345.902 61.9884H337.238C336.877 61.9884 336.58 61.8729 336.348 61.6418C336.116 61.4108 336 61.1155 336 60.7561V53.3624C336 53.003 336.116 52.7077 336.348 52.4767C336.58 52.2456 336.877 52.1301 337.238 52.1301H345.902C347.14 52.1301 348.262 51.9375 349.268 51.5525C350.273 51.1674 351.163 50.5897 351.937 49.8195C352.71 49.0494 353.368 48.2599 353.909 47.4512C354.451 46.6426 355.031 45.6477 355.65 44.4668C356.475 42.8751 357.481 40.6801 358.667 37.8818C359.415 36.1874 360.053 34.7625 360.582 33.6073C361.11 32.452 361.807 31.1042 362.67 29.5638C363.534 28.0234 364.36 26.7398 365.146 25.7129C365.933 24.686 366.887 23.6206 368.008 22.5167C369.13 21.4127 370.291 20.5334 371.49 19.8788C372.689 19.2241 374.062 18.685 375.609 18.2614C377.156 17.8378 378.807 17.626 380.56 17.626H390.463V10.2323C390.463 9.87287 390.579 9.57764 390.811 9.34658C391.043 9.11553 391.34 9 391.701 9C392.01 9 392.319 9.12836 392.629 9.38509L404.968 21.6695C405.2 21.9005 405.316 22.1958 405.316 22.5552Z" fill="white" fill-opacity="0.29"/>
<path d="M110.39 252.109C117.159 258.899 122.679 270.002 119.521 276.587C111.052 294.238 47.8789 325.173 42.501 319.823C37.1421 314.478 68.1807 251.43 85.8674 242.978C92.4791 239.842 103.607 245.401 110.409 252.1L110.385 252.166L110.39 252.109ZM143.867 244.669C142.767 240.607 139.956 236.511 135.769 236.022C128.1 235.138 115.996 248.674 116.854 251.886C117.716 255.164 134.793 260.794 141.147 256.233C144.439 253.886 144.868 248.821 143.796 244.764L143.867 244.669ZM120.093 207.159C125.799 208.698 131.558 212.613 132.244 218.476C133.488 229.209 114.467 246.123 109.951 244.911C105.436 243.719 97.4807 219.806 103.907 210.883C107.217 206.265 114.391 205.629 120.098 207.14L120.093 207.159Z" fill="white" fill-opacity="0.29"/>
<path d="M331.502 128.701C338.271 135.49 343.792 146.594 340.633 153.179C332.164 170.83 268.991 201.764 263.613 196.415C258.254 191.07 289.293 128.022 306.98 119.569C313.591 116.434 324.719 121.992 331.521 128.692L331.497 128.758L331.502 128.701ZM364.979 121.261C363.879 117.199 361.069 113.103 356.882 112.614C349.212 111.73 337.109 125.266 337.966 128.478C338.828 131.756 355.905 137.386 362.26 132.825C365.551 130.478 365.98 125.413 364.908 121.356L364.979 121.261ZM341.205 83.7503C346.912 85.2897 352.671 89.2047 353.357 95.0676C354.6 105.8 335.579 122.715 331.064 121.503C326.548 120.311 318.593 96.3979 325.019 87.4753C328.33 82.8571 335.503 82.2205 341.21 83.7313L341.205 83.7503Z" fill="white" fill-opacity="0.29"/>
<path d="M241.313 16.9443C231.318 16.9443 221.732 20.9149 214.664 27.9826C207.597 35.0503 203.626 44.6362 203.626 54.6315C203.626 64.6267 207.597 74.2126 214.664 81.2803C221.732 88.348 231.318 92.3186 241.313 92.3186C251.308 92.3186 260.894 88.348 267.962 81.2803C275.03 74.2126 279 64.6267 279 54.6315C279 44.6362 275.03 35.0503 267.962 27.9826C260.894 20.9149 251.308 16.9443 241.313 16.9443ZM227.614 24.6231L238.967 31.2466V39.2551L225.923 48.4508L218.574 45.7797L215.625 33.9459C218.841 29.9478 222.946 26.7556 227.614 24.6231ZM208.497 57.8914L217.104 50.2597L224.387 52.9026L229.31 68.4014L225.932 73.4562H214.235C211.02 68.8455 209.044 63.4857 208.497 57.8914ZM233.648 86.7126L229.809 76.132L233.154 71.1243H249.486L252.836 76.132L248.997 86.7079C243.952 87.915 238.693 87.9198 233.648 86.7126ZM268.391 73.4515H256.718L253.326 68.3873L258.155 52.9026L265.536 50.2456L274.129 57.8867C273.582 63.481 271.606 68.8408 268.391 73.4515ZM267.025 33.9742L264.076 45.7656L256.614 48.4508L243.673 39.2551V31.2466L255.022 24.6231C259.697 26.7618 263.808 29.9641 267.025 33.9742Z" fill="white" fill-opacity="0.29"/>
<path d="M351.687 234C341.692 234 332.106 237.971 325.038 245.038C317.971 252.106 314 261.692 314 271.687C314 281.682 317.971 291.268 325.038 298.336C332.106 305.404 341.692 309.374 351.687 309.374C361.682 309.374 371.268 305.404 378.336 298.336C385.404 291.268 389.374 281.682 389.374 271.687C389.374 261.692 385.404 252.106 378.336 245.038C371.268 237.971 361.682 234 351.687 234ZM337.988 241.679L349.341 248.302V256.311L336.297 265.506L328.948 262.835L325.999 251.002C329.215 247.003 333.321 243.811 337.988 241.679ZM318.871 274.947L327.478 267.315L334.761 269.958L339.684 285.457L336.306 290.512H324.609C321.394 285.901 319.418 280.541 318.871 274.947ZM344.023 303.768L340.183 293.188L343.528 288.18H359.861L363.21 293.188L359.371 303.764C354.326 304.971 349.067 304.975 344.023 303.768ZM378.765 290.507H367.092L363.7 285.443L368.529 269.958L375.911 267.301L384.503 274.942C383.956 280.537 381.98 285.896 378.765 290.507ZM377.399 251.03L374.45 262.821L366.988 265.506L354.047 256.311V248.302L365.396 241.679C370.071 243.817 374.182 247.02 377.399 251.03Z" fill="white" fill-opacity="0.29"/>
<path d="M112.313 155.115C108.842 153.065 106.861 150.281 106.368 146.763C105.876 143.246 106.881 139.911 109.385 136.76L131.574 108.981C134.573 105.302 138.363 103.043 142.944 102.205C147.526 101.368 151.856 102.154 155.937 104.564L196.361 128.438C200.444 130.85 203.225 134.264 204.703 138.68C206.181 143.096 206.032 147.505 204.255 151.907L190.641 184.749C189.088 188.466 186.653 190.958 183.334 192.225C180.016 193.492 176.622 193.099 173.153 191.047C171.724 190.203 170.545 189.167 169.618 187.94C168.69 186.713 168.015 185.291 167.593 183.675L163.776 169.156L136.01 152.757L121.453 156.425C119.835 156.832 118.264 156.927 116.74 156.711C115.216 156.494 113.74 155.962 112.313 155.115ZM177.47 160.89C178.627 161.573 179.826 161.759 181.069 161.446C182.311 161.133 183.268 160.404 183.94 159.26C184.612 158.116 184.786 156.926 184.463 155.688C184.14 154.451 183.401 153.491 182.244 152.807C181.087 152.124 179.889 151.94 178.649 152.254C177.409 152.569 176.451 153.296 175.774 154.437C175.096 155.578 174.921 156.77 175.248 158.013C175.575 159.256 176.315 160.215 177.47 160.89ZM176.464 143.943C177.621 144.626 178.821 144.811 180.063 144.498C181.305 144.185 182.262 143.457 182.934 142.313C183.606 141.169 183.781 139.978 183.458 138.741C183.135 137.504 182.395 136.543 181.238 135.86C180.081 135.177 178.883 134.992 177.643 135.307C176.404 135.621 175.445 136.349 174.768 137.49C174.09 138.631 173.915 139.823 174.242 141.066C174.569 142.309 175.309 143.268 176.464 143.943ZM139.7 138.583L145.825 142.201L150.002 135.128L157.148 139.348L160.728 133.286L153.582 129.066L157.759 121.994L151.635 118.376L147.458 125.449L140.312 121.229L136.732 127.291L143.877 131.511L139.7 138.583Z" fill="white" fill-opacity="0.29"/>
<path d="M415.351 109.693C411.88 107.643 409.899 104.859 409.406 101.342C408.914 97.8237 409.919 94.4891 412.423 91.338L434.612 63.5594C437.611 59.8797 441.401 57.6211 445.982 56.7835C450.564 55.946 454.894 56.7322 458.975 59.1421L499.399 83.0163C503.482 85.4278 506.263 88.8418 507.741 93.258C509.219 97.6743 509.07 102.083 507.293 106.485L493.679 139.328C492.126 143.044 489.691 145.536 486.372 146.803C483.054 148.07 479.66 147.678 476.191 145.625C474.762 144.781 473.583 143.745 472.656 142.518C471.729 141.291 471.054 139.869 470.631 138.253L466.814 123.734L439.048 107.336L424.491 111.003C422.873 111.41 421.303 111.506 419.778 111.289C418.254 111.072 416.778 110.54 415.351 109.693ZM480.508 115.468C481.665 116.152 482.864 116.337 484.107 116.024C485.349 115.711 486.306 114.982 486.978 113.838C487.65 112.694 487.825 111.504 487.502 110.266C487.179 109.029 486.439 108.069 485.282 107.385C484.125 106.702 482.927 106.518 481.687 106.832C480.448 107.147 479.489 107.875 478.812 109.015C478.134 110.156 477.959 111.348 478.286 112.591C478.613 113.835 479.353 114.794 480.508 115.468ZM479.502 98.5209C480.659 99.2042 481.859 99.3894 483.101 99.0764C484.343 98.7635 485.3 98.035 485.972 96.891C486.644 95.747 486.819 94.5564 486.496 93.319C486.173 92.0817 485.433 91.1213 484.276 90.4381C483.119 89.7548 481.921 89.5704 480.681 89.885C479.442 90.1995 478.483 90.9272 477.806 92.068C477.128 93.2087 476.953 94.4007 477.28 95.644C477.607 96.8873 478.348 97.8463 479.502 98.5209ZM442.738 93.1615L448.863 96.7788L453.04 89.7064L460.186 93.9265L463.766 87.8644L456.62 83.6442L460.797 76.5717L454.673 72.9544L450.496 80.0269L443.35 75.8067L439.77 81.8689L446.915 86.0891L442.738 93.1615Z" fill="white" fill-opacity="0.29"/>
<path d="M67.118 93.0826C62.4638 93.0826 58.2588 92.7151 54.5028 91.9803C50.7469 91.2454 48.0932 90.0614 46.5418 88.4284C45.0721 86.877 43.929 84.1826 43.1125 80.3449C42.296 76.5073 41.8877 72.1798 41.8877 67.3624C41.8877 57.9725 43.542 48.9712 46.8505 40.3586C50.159 31.746 54.7102 24.4987 60.5042 18.6165C66.3015 12.8193 73.5488 8.26802 82.2463 4.96277C90.9438 1.65752 100.108 0.00326605 109.74 0C114.394 0 118.599 0.367431 122.355 1.10229C126.111 1.83716 128.765 3.0211 130.316 4.65413C131.786 6.2055 132.929 8.9 133.745 12.7376C134.562 16.5752 134.97 20.9027 134.97 25.7202C134.97 35.1101 133.318 44.113 130.012 52.7288C126.707 61.3447 122.154 68.5904 116.354 74.466C110.556 80.2633 103.311 84.8162 94.6165 88.1247C85.9223 91.4332 76.7561 93.0858 67.118 93.0826ZM51.9308 65.4027C54.6253 59.5238 57.8914 53.7887 61.729 48.1972C65.5666 42.6057 69.8125 37.3996 74.4666 32.5789C79.1207 27.9248 84.2452 23.6789 89.8399 19.8413C95.4347 16.0037 101.17 12.7376 107.045 10.0431C99.6152 10.2881 92.3286 11.8199 85.1858 14.6385C78.0429 17.4571 72.1836 21.151 67.6079 25.7202C62.7904 30.3743 59.0149 36.2124 56.2812 43.2344C53.5475 50.2564 52.0974 57.6459 51.9308 65.4027ZM69.8125 83.0394C77.2427 82.7945 84.5309 81.2643 91.6771 78.449C98.8232 75.6337 104.681 71.9381 109.25 67.3624C114.067 62.7082 117.845 56.8702 120.582 49.8482C123.319 42.8261 124.767 35.4367 124.927 27.6798C122.233 33.5587 118.967 39.2955 115.129 44.8903C111.291 50.485 107.045 55.6895 102.391 60.5037C97.7372 65.1578 92.6144 69.4037 87.0229 73.2413C81.4315 77.0789 75.6946 80.3449 69.8125 83.0394Z" fill="white" fill-opacity="0.29"/>
<path d="M487.23 318.083C482.576 318.083 478.371 317.715 474.615 316.98C470.859 316.245 468.206 315.061 466.654 313.428C465.184 311.877 464.041 309.183 463.225 305.345C462.408 301.507 462 297.18 462 292.362C462 282.972 463.654 273.971 466.963 265.359C470.271 256.746 474.823 249.499 480.617 243.617C486.414 237.819 493.661 233.268 502.359 229.963C511.056 226.658 520.221 225.003 529.852 225C534.506 225 538.711 225.367 542.467 226.102C546.223 226.837 548.877 228.021 550.428 229.654C551.898 231.206 553.041 233.9 553.858 237.738C554.674 241.575 555.083 245.903 555.083 250.72C555.083 260.11 553.43 269.113 550.125 277.729C546.819 286.345 542.267 293.59 536.466 299.466C530.669 305.263 523.423 309.816 514.729 313.125C506.035 316.433 496.868 318.086 487.23 318.083ZM472.043 290.403C474.738 284.524 478.004 278.789 481.841 273.197C485.679 267.606 489.925 262.4 494.579 257.579C499.233 252.925 504.357 248.679 509.952 244.841C515.547 241.004 521.282 237.738 527.158 235.043C519.728 235.288 512.441 236.82 505.298 239.638C498.155 242.457 492.296 246.151 487.72 250.72C482.903 255.374 479.127 261.212 476.394 268.234C473.66 275.256 472.21 282.646 472.043 290.403ZM489.925 308.039C497.355 307.794 504.643 306.264 511.789 303.449C518.935 300.634 524.793 296.938 529.362 292.362C534.18 287.708 537.957 281.87 540.694 274.848C543.431 267.826 544.879 260.437 545.039 252.68C542.345 258.559 539.079 264.296 535.241 269.89C531.404 275.485 527.158 280.689 522.504 285.504C517.85 290.158 512.727 294.404 507.135 298.241C501.544 302.079 495.807 305.345 489.925 308.039Z" fill="white" fill-opacity="0.29"/>
<path d="M195.23 309.083C190.576 309.083 186.371 308.715 182.615 307.98C178.859 307.245 176.206 306.061 174.654 304.428C173.184 302.877 172.041 300.183 171.225 296.345C170.408 292.507 170 288.18 170 283.362C170 273.972 171.654 264.971 174.963 256.359C178.271 247.746 182.823 240.499 188.617 234.617C194.414 228.819 201.661 224.268 210.359 220.963C219.056 217.658 228.221 216.003 237.852 216C242.506 216 246.711 216.367 250.467 217.102C254.223 217.837 256.877 219.021 258.428 220.654C259.898 222.206 261.041 224.9 261.858 228.738C262.674 232.575 263.083 236.903 263.083 241.72C263.083 251.11 261.43 260.113 258.125 268.729C254.819 277.345 250.267 284.59 244.466 290.466C238.669 296.263 231.423 300.816 222.729 304.125C214.035 307.433 204.868 309.086 195.23 309.083ZM180.043 281.403C182.738 275.524 186.004 269.789 189.841 264.197C193.679 258.606 197.925 253.4 202.579 248.579C207.233 243.925 212.357 239.679 217.952 235.841C223.547 232.004 229.282 228.738 235.158 226.043C227.728 226.288 220.441 227.82 213.298 230.638C206.155 233.457 200.296 237.151 195.72 241.72C190.903 246.374 187.127 252.212 184.394 259.234C181.66 266.256 180.21 273.646 180.043 281.403ZM197.925 299.039C205.355 298.794 212.643 297.264 219.789 294.449C226.935 291.634 232.793 287.938 237.362 283.362C242.18 278.708 245.957 272.87 248.694 265.848C251.431 258.826 252.879 251.437 253.039 243.68C250.345 249.559 247.079 255.296 243.241 260.89C239.404 266.485 235.158 271.689 230.504 276.504C225.85 281.158 220.727 285.404 215.135 289.241C209.544 293.079 203.807 296.345 197.925 299.039Z" fill="white" fill-opacity="0.29"/>
</g>
<g opacity="0.28">
<path d="M625.761 245.291C624.214 247.652 622.448 251.157 620.462 255.804C619.895 254.648 619.418 253.718 619.031 253.012C618.644 252.306 618.122 251.49 617.464 250.566C616.807 249.642 616.149 248.917 615.492 248.391C614.834 247.864 614.022 247.415 613.055 247.043C612.088 246.67 611.037 246.484 609.902 246.484H601.238C600.877 246.484 600.58 246.369 600.348 246.138C600.116 245.907 600 245.611 600 245.252V237.858C600 237.499 600.116 237.204 600.348 236.973C600.58 236.742 600.877 236.626 601.238 236.626H609.902C616.349 236.626 621.636 239.514 625.761 245.291ZM669.316 276.059C669.316 276.419 669.2 276.714 668.968 276.945L656.59 289.268C656.358 289.499 656.062 289.614 655.701 289.614C655.365 289.614 655.075 289.492 654.83 289.249C654.585 289.005 654.463 288.716 654.463 288.382V280.988C653.638 280.988 652.542 280.995 651.175 281.008C649.808 281.02 648.764 281.033 648.042 281.046C647.32 281.059 646.378 281.046 645.218 281.008C644.058 280.969 643.142 280.905 642.472 280.815C641.801 280.725 640.976 280.59 639.996 280.411C639.016 280.231 638.204 279.994 637.559 279.698C636.914 279.403 636.167 279.037 635.316 278.601C634.465 278.164 633.704 277.651 633.034 277.06C632.363 276.47 631.654 275.783 630.906 275C630.158 274.217 629.436 273.325 628.74 272.324C630.261 269.936 632.015 266.432 634.001 261.811C634.568 262.966 635.045 263.897 635.432 264.603C635.819 265.309 636.341 266.124 636.998 267.048C637.656 267.972 638.313 268.698 638.971 269.224C639.629 269.75 640.441 270.199 641.408 270.572C642.375 270.944 643.426 271.13 644.56 271.13H654.463V263.736C654.463 263.377 654.579 263.082 654.811 262.851C655.043 262.62 655.34 262.504 655.701 262.504C656.01 262.504 656.319 262.632 656.629 262.889L668.968 275.174C669.2 275.405 669.316 275.7 669.316 276.059ZM669.316 241.555C669.316 241.915 669.2 242.21 668.968 242.441L656.59 254.764C656.358 254.995 656.062 255.11 655.701 255.11C655.365 255.11 655.075 254.988 654.83 254.745C654.585 254.501 654.463 254.212 654.463 253.878V246.484H644.56C643.323 246.484 642.201 246.677 641.195 247.062C640.189 247.447 639.3 248.025 638.526 248.795C637.753 249.565 637.095 250.354 636.553 251.163C636.012 251.972 635.432 252.967 634.813 254.148C633.988 255.739 632.982 257.934 631.796 260.733C631.048 262.427 630.41 263.852 629.881 265.007C629.352 266.162 628.656 267.51 627.792 269.051C626.928 270.591 626.103 271.875 625.317 272.902C624.53 273.928 623.576 274.994 622.454 276.098C621.333 277.202 620.172 278.081 618.973 278.736C617.774 279.39 616.401 279.929 614.853 280.353C613.306 280.777 611.656 280.988 609.902 280.988H601.238C600.877 280.988 600.58 280.873 600.348 280.642C600.116 280.411 600 280.116 600 279.756V272.362C600 272.003 600.116 271.708 600.348 271.477C600.58 271.246 600.877 271.13 601.238 271.13H609.902C611.14 271.13 612.262 270.938 613.268 270.552C614.273 270.167 615.163 269.59 615.937 268.82C616.71 268.049 617.368 267.26 617.909 266.451C618.451 265.643 619.031 264.648 619.65 263.467C620.475 261.875 621.481 259.68 622.667 256.882C623.415 255.187 624.053 253.763 624.582 252.607C625.11 251.452 625.807 250.104 626.67 248.564C627.534 247.023 628.36 245.74 629.146 244.713C629.933 243.686 630.887 242.621 632.008 241.517C633.13 240.413 634.291 239.533 635.49 238.879C636.689 238.224 638.062 237.685 639.609 237.261C641.156 236.838 642.807 236.626 644.56 236.626H654.463V229.232C654.463 228.873 654.579 228.578 654.811 228.347C655.043 228.116 655.34 228 655.701 228C656.01 228 656.319 228.128 656.629 228.385L668.968 240.669C669.2 240.901 669.316 241.196 669.316 241.555Z" fill="white" fill-opacity="0.29"/>
<path d="M944.761 189.291C943.214 191.652 941.448 195.157 939.462 199.804C938.895 198.648 938.418 197.718 938.031 197.012C937.644 196.306 937.122 195.49 936.464 194.566C935.807 193.642 935.149 192.917 934.492 192.391C933.834 191.864 933.022 191.415 932.055 191.043C931.088 190.67 930.037 190.484 928.902 190.484H920.238C919.877 190.484 919.58 190.369 919.348 190.138C919.116 189.907 919 189.611 919 189.252V181.858C919 181.499 919.116 181.204 919.348 180.973C919.58 180.742 919.877 180.626 920.238 180.626H928.902C935.349 180.626 940.636 183.514 944.761 189.291ZM988.316 220.059C988.316 220.419 988.2 220.714 987.968 220.945L975.59 233.268C975.358 233.499 975.062 233.614 974.701 233.614C974.365 233.614 974.075 233.492 973.83 233.249C973.585 233.005 973.463 232.716 973.463 232.382V224.988C972.638 224.988 971.542 224.995 970.175 225.008C968.808 225.02 967.764 225.033 967.042 225.046C966.32 225.059 965.378 225.046 964.218 225.008C963.058 224.969 962.142 224.905 961.472 224.815C960.801 224.725 959.976 224.59 958.996 224.411C958.016 224.231 957.204 223.994 956.559 223.698C955.914 223.403 955.167 223.037 954.316 222.601C953.465 222.164 952.704 221.651 952.034 221.06C951.363 220.47 950.654 219.783 949.906 219C949.158 218.217 948.436 217.325 947.74 216.324C949.261 213.936 951.015 210.432 953.001 205.811C953.568 206.966 954.045 207.897 954.432 208.603C954.819 209.309 955.341 210.124 955.998 211.048C956.656 211.972 957.313 212.698 957.971 213.224C958.629 213.75 959.441 214.199 960.408 214.572C961.375 214.944 962.426 215.13 963.56 215.13H973.463V207.736C973.463 207.377 973.579 207.082 973.811 206.851C974.043 206.62 974.34 206.504 974.701 206.504C975.01 206.504 975.319 206.632 975.629 206.889L987.968 219.174C988.2 219.405 988.316 219.7 988.316 220.059ZM988.316 185.555C988.316 185.915 988.2 186.21 987.968 186.441L975.59 198.764C975.358 198.995 975.062 199.11 974.701 199.11C974.365 199.11 974.075 198.988 973.83 198.745C973.585 198.501 973.463 198.212 973.463 197.878V190.484H963.56C962.323 190.484 961.201 190.677 960.195 191.062C959.189 191.447 958.3 192.025 957.526 192.795C956.753 193.565 956.095 194.354 955.553 195.163C955.012 195.972 954.432 196.967 953.813 198.148C952.988 199.739 951.982 201.934 950.796 204.733C950.048 206.427 949.41 207.852 948.881 209.007C948.352 210.162 947.656 211.51 946.792 213.051C945.928 214.591 945.103 215.875 944.317 216.902C943.53 217.928 942.576 218.994 941.454 220.098C940.333 221.202 939.172 222.081 937.973 222.736C936.774 223.39 935.401 223.929 933.853 224.353C932.306 224.777 930.656 224.988 928.902 224.988H920.238C919.877 224.988 919.58 224.873 919.348 224.642C919.116 224.411 919 224.116 919 223.756V216.362C919 216.003 919.116 215.708 919.348 215.477C919.58 215.246 919.877 215.13 920.238 215.13H928.902C930.14 215.13 931.262 214.938 932.268 214.552C933.273 214.167 934.163 213.59 934.937 212.82C935.71 212.049 936.368 211.26 936.909 210.451C937.451 209.643 938.031 208.648 938.65 207.467C939.475 205.875 940.481 203.68 941.667 200.882C942.415 199.187 943.053 197.763 943.582 196.607C944.11 195.452 944.807 194.104 945.67 192.564C946.534 191.023 947.36 189.74 948.146 188.713C948.933 187.686 949.887 186.621 951.008 185.517C952.13 184.413 953.291 183.533 954.49 182.879C955.689 182.224 957.062 181.685 958.609 181.261C960.156 180.838 961.807 180.626 963.56 180.626H973.463V173.232C973.463 172.873 973.579 172.578 973.811 172.347C974.043 172.116 974.34 172 974.701 172C975.01 172 975.319 172.128 975.629 172.385L987.968 184.669C988.2 184.901 988.316 185.196 988.316 185.555Z" fill="white" fill-opacity="0.29"/>
<path d="M899.761 32.2905C898.214 34.6524 896.448 38.1567 894.462 42.8035C893.895 41.6482 893.418 40.7176 893.031 40.0116C892.644 39.3056 892.122 38.4905 891.464 37.5663C890.807 36.6421 890.149 35.9168 889.492 35.3905C888.834 34.8642 888.022 34.415 887.055 34.0427C886.088 33.6705 885.037 33.4843 883.902 33.4843H875.238C874.877 33.4843 874.58 33.3688 874.348 33.1377C874.116 32.9067 874 32.6115 874 32.252V24.8583C874 24.4989 874.116 24.2037 874.348 23.9726C874.58 23.7415 874.877 23.626 875.238 23.626H883.902C890.349 23.626 895.636 26.5142 899.761 32.2905ZM943.316 63.0592C943.316 63.4187 943.2 63.7139 942.968 63.9449L930.59 76.2678C930.358 76.4989 930.062 76.6144 929.701 76.6144C929.365 76.6144 929.075 76.4925 928.83 76.2486C928.585 76.0047 928.463 75.7159 928.463 75.3821V67.9884C927.638 67.9884 926.542 67.9948 925.175 68.0076C923.808 68.0205 922.764 68.0333 922.042 68.0462C921.32 68.059 920.378 68.0462 919.218 68.0076C918.058 67.9691 917.142 67.905 916.472 67.8151C915.801 67.7252 914.976 67.5905 913.996 67.4108C913.016 67.2311 912.204 66.9936 911.559 66.6983C910.914 66.4031 910.167 66.0373 909.316 65.6008C908.465 65.1644 907.704 64.6509 907.034 64.0605C906.363 63.47 905.654 62.7833 904.906 62.0002C904.158 61.2172 903.436 60.3251 902.74 59.3239C904.261 56.9363 906.015 53.432 908.001 48.8109C908.568 49.9662 909.045 50.8968 909.432 51.6028C909.819 52.3088 910.341 53.1239 910.998 54.0481C911.656 54.9723 912.313 55.6976 912.971 56.2239C913.629 56.7502 914.441 57.1995 915.408 57.5717C916.375 57.944 917.426 58.1301 918.56 58.1301H928.463V50.7364C928.463 50.3769 928.579 50.0817 928.811 49.8507C929.043 49.6196 929.34 49.5041 929.701 49.5041C930.01 49.5041 930.319 49.6324 930.629 49.8892L942.968 62.1735C943.2 62.4046 943.316 62.6998 943.316 63.0592ZM943.316 28.5552C943.316 28.9146 943.2 29.2098 942.968 29.4409L930.59 41.7638C930.358 41.9948 930.062 42.1103 929.701 42.1103C929.365 42.1103 929.075 41.9884 928.83 41.7445C928.585 41.5006 928.463 41.2118 928.463 40.8781V33.4843H918.56C917.323 33.4843 916.201 33.6769 915.195 34.062C914.189 34.447 913.3 35.0247 912.526 35.7949C911.753 36.565 911.095 37.3545 910.553 38.1632C910.012 38.9719 909.432 39.9667 908.813 41.1476C907.988 42.7393 906.982 44.9343 905.796 47.7327C905.048 49.4271 904.41 50.8519 903.881 52.0072C903.352 53.1624 902.656 54.5102 901.792 56.0506C900.928 57.591 900.103 58.8746 899.317 59.9015C898.53 60.9284 897.576 61.9938 896.454 63.0978C895.333 64.2017 894.172 65.081 892.973 65.7356C891.774 66.3903 890.401 66.9294 888.853 67.353C887.306 67.7766 885.656 67.9884 883.902 67.9884H875.238C874.877 67.9884 874.58 67.8729 874.348 67.6418C874.116 67.4108 874 67.1155 874 66.7561V59.3624C874 59.003 874.116 58.7077 874.348 58.4767C874.58 58.2456 874.877 58.1301 875.238 58.1301H883.902C885.14 58.1301 886.262 57.9375 887.268 57.5525C888.273 57.1674 889.163 56.5897 889.937 55.8195C890.71 55.0494 891.368 54.2599 891.909 53.4512C892.451 52.6426 893.031 51.6477 893.65 50.4668C894.475 48.8751 895.481 46.6801 896.667 43.8818C897.415 42.1874 898.053 40.7625 898.582 39.6073C899.11 38.452 899.807 37.1042 900.67 35.5638C901.534 34.0234 902.36 32.7398 903.146 31.7129C903.933 30.686 904.887 29.6206 906.008 28.5167C907.13 27.4127 908.291 26.5334 909.49 25.8788C910.689 25.2241 912.062 24.685 913.609 24.2614C915.156 23.8378 916.807 23.626 918.56 23.626H928.463V16.2323C928.463 15.8729 928.579 15.5776 928.811 15.3466C929.043 15.1155 929.34 15 929.701 15C930.01 15 930.319 15.1284 930.629 15.3851L942.968 27.6695C943.2 27.9005 943.316 28.1958 943.316 28.5552Z" fill="white" fill-opacity="0.29"/>
<path d="M577.502 142.701C584.271 149.49 589.792 160.594 586.633 167.179C578.164 184.83 514.991 215.764 509.613 210.415C504.254 205.07 535.293 142.022 552.98 133.569C559.591 130.434 570.719 135.992 577.521 142.692L577.497 142.758L577.502 142.701ZM610.979 135.261C609.879 131.199 607.069 127.103 602.882 126.614C595.212 125.73 583.109 139.266 583.966 142.478C584.828 145.756 601.905 151.386 608.26 146.825C611.551 144.478 611.98 139.413 610.908 135.356L610.979 135.261ZM587.205 97.7503C592.912 99.2897 598.671 103.205 599.357 109.068C600.6 119.8 581.579 136.715 577.064 135.503C572.548 134.311 564.593 110.398 571.019 101.475C574.33 96.8571 581.503 96.2205 587.21 97.7313L587.205 97.7503Z" fill="white" fill-opacity="0.29"/>
<path d="M869.502 134.701C876.271 141.49 881.792 152.594 878.633 159.179C870.164 176.83 806.991 207.764 801.613 202.415C796.254 197.07 827.293 134.022 844.98 125.569C851.591 122.434 862.719 127.992 869.521 134.692L869.497 134.758L869.502 134.701ZM902.979 127.261C901.879 123.199 899.069 119.103 894.882 118.614C887.212 117.73 875.109 131.266 875.966 134.478C876.828 137.756 893.905 143.386 900.26 138.825C903.551 136.478 903.98 131.413 902.908 127.356L902.979 127.261ZM879.205 89.7503C884.912 91.2897 890.671 95.2047 891.357 101.068C892.6 111.8 873.579 128.715 869.064 127.503C864.548 126.311 856.593 102.398 863.019 93.4753C866.33 88.8571 873.503 88.2205 879.21 89.7313L879.205 89.7503Z" fill="white" fill-opacity="0.29"/>
<path d="M779.313 22.9443C769.318 22.9443 759.732 26.9149 752.664 33.9826C745.597 41.0503 741.626 50.6362 741.626 60.6315C741.626 70.6267 745.597 80.2126 752.664 87.2803C759.732 94.348 769.318 98.3186 779.313 98.3186C789.308 98.3186 798.894 94.348 805.962 87.2803C813.03 80.2126 817 70.6267 817 60.6315C817 50.6362 813.03 41.0503 805.962 33.9826C798.894 26.9149 789.308 22.9443 779.313 22.9443ZM765.614 30.6231L776.967 37.2466V45.2551L763.923 54.4508L756.574 51.7797L753.625 39.9459C756.841 35.9478 760.946 32.7556 765.614 30.6231ZM746.497 63.8914L755.104 56.2597L762.387 58.9026L767.31 74.4014L763.932 79.4562H752.235C749.02 74.8455 747.044 69.4857 746.497 63.8914ZM771.648 92.7126L767.809 82.132L771.154 77.1243H787.486L790.836 82.132L786.997 92.7079C781.952 93.915 776.693 93.9198 771.648 92.7126ZM806.391 79.4515H794.718L791.326 74.3873L796.155 58.9026L803.536 56.2456L812.129 63.8867C811.582 69.481 809.606 74.8408 806.391 79.4515ZM805.025 39.9742L802.076 51.7656L794.614 54.4508L781.673 45.2551V37.2466L793.022 30.6231C797.697 32.7618 801.808 35.9641 805.025 39.9742Z" fill="white" fill-opacity="0.29"/>
<path d="M889.687 240C879.692 240 870.106 243.971 863.038 251.038C855.971 258.106 852 267.692 852 277.687C852 287.682 855.971 297.268 863.038 304.336C870.106 311.404 879.692 315.374 889.687 315.374C899.682 315.374 909.268 311.404 916.336 304.336C923.404 297.268 927.374 287.682 927.374 277.687C927.374 267.692 923.404 258.106 916.336 251.038C909.268 243.971 899.682 240 889.687 240ZM875.988 247.679L887.341 254.302V262.311L874.297 271.506L866.948 268.835L863.999 257.002C867.215 253.003 871.321 249.811 875.988 247.679ZM856.871 280.947L865.478 273.315L872.761 275.958L877.684 291.457L874.306 296.512H862.609C859.394 291.901 857.418 286.541 856.871 280.947ZM882.023 309.768L878.183 299.188L881.528 294.18H897.861L901.21 299.188L897.371 309.764C892.326 310.971 887.067 310.975 882.023 309.768ZM916.765 296.507H905.092L901.7 291.443L906.529 275.958L913.911 273.301L922.503 280.942C921.956 286.537 919.98 291.896 916.765 296.507ZM915.399 257.03L912.45 268.821L904.988 271.506L892.047 262.311V254.302L903.396 247.679C908.071 249.817 912.182 253.02 915.399 257.03Z" fill="white" fill-opacity="0.29"/>
<path d="M650.313 161.115C646.842 159.065 644.861 156.281 644.368 152.763C643.876 149.246 644.881 145.911 647.385 142.76L669.574 114.981C672.573 111.302 676.363 109.043 680.944 108.205C685.526 107.368 689.856 108.154 693.937 110.564L734.361 134.438C738.444 136.85 741.225 140.264 742.703 144.68C744.181 149.096 744.032 153.505 742.255 157.907L728.641 190.749C727.088 194.466 724.653 196.958 721.334 198.225C718.016 199.492 714.622 199.099 711.153 197.047C709.724 196.203 708.545 195.167 707.618 193.94C706.69 192.713 706.015 191.291 705.593 189.675L701.776 175.156L674.01 158.757L659.453 162.425C657.835 162.832 656.264 162.927 654.74 162.711C653.216 162.494 651.74 161.962 650.313 161.115ZM715.47 166.89C716.627 167.573 717.826 167.759 719.069 167.446C720.311 167.133 721.268 166.404 721.94 165.26C722.612 164.116 722.786 162.926 722.463 161.688C722.14 160.451 721.401 159.491 720.244 158.807C719.087 158.124 717.889 157.94 716.649 158.254C715.409 158.569 714.451 159.296 713.774 160.437C713.096 161.578 712.921 162.77 713.248 164.013C713.575 165.256 714.315 166.215 715.47 166.89ZM714.464 149.943C715.621 150.626 716.821 150.811 718.063 150.498C719.305 150.185 720.262 149.457 720.934 148.313C721.606 147.169 721.781 145.978 721.458 144.741C721.135 143.504 720.395 142.543 719.238 141.86C718.081 141.177 716.883 140.992 715.643 141.307C714.404 141.621 713.445 142.349 712.768 143.49C712.09 144.631 711.915 145.823 712.242 147.066C712.569 148.309 713.309 149.268 714.464 149.943ZM677.7 144.583L683.825 148.201L688.002 141.128L695.148 145.348L698.728 139.286L691.582 135.066L695.759 127.994L689.635 124.376L685.458 131.449L678.312 127.229L674.732 133.291L681.877 137.511L677.7 144.583Z" fill="white" fill-opacity="0.29"/>
<path d="M953.351 115.693C949.88 113.643 947.899 110.859 947.406 107.342C946.914 103.824 947.919 100.489 950.423 97.338L972.612 69.5594C975.611 65.8797 979.401 63.6211 983.982 62.7835C988.564 61.946 992.894 62.7322 996.975 65.1421L1037.4 89.0163C1041.48 91.4278 1044.26 94.8418 1045.74 99.258C1047.22 103.674 1047.07 108.083 1045.29 112.485L1031.68 145.328C1030.13 149.044 1027.69 151.536 1024.37 152.803C1021.05 154.07 1017.66 153.678 1014.19 151.625C1012.76 150.781 1011.58 149.745 1010.66 148.518C1009.73 147.291 1009.05 145.869 1008.63 144.253L1004.81 129.734L977.048 113.336L962.491 117.003C960.873 117.41 959.303 117.506 957.778 117.289C956.254 117.072 954.778 116.54 953.351 115.693ZM1018.51 121.468C1019.66 122.152 1020.86 122.337 1022.11 122.024C1023.35 121.711 1024.31 120.982 1024.98 119.838C1025.65 118.694 1025.82 117.504 1025.5 116.266C1025.18 115.029 1024.44 114.069 1023.28 113.385C1022.12 112.702 1020.93 112.518 1019.69 112.832C1018.45 113.147 1017.49 113.875 1016.81 115.015C1016.13 116.156 1015.96 117.348 1016.29 118.591C1016.61 119.835 1017.35 120.794 1018.51 121.468ZM1017.5 104.521C1018.66 105.204 1019.86 105.389 1021.1 105.076C1022.34 104.763 1023.3 104.035 1023.97 102.891C1024.64 101.747 1024.82 100.556 1024.5 99.319C1024.17 98.0817 1023.43 97.1213 1022.28 96.4381C1021.12 95.7548 1019.92 95.5704 1018.68 95.885C1017.44 96.1995 1016.48 96.9272 1015.81 98.068C1015.13 99.2087 1014.95 100.401 1015.28 101.644C1015.61 102.887 1016.35 103.846 1017.5 104.521ZM980.738 99.1615L986.863 102.779L991.04 95.7064L998.186 99.9265L1001.77 93.8644L994.62 89.6442L998.797 82.5717L992.673 78.9544L988.496 86.0269L981.35 81.8067L977.77 87.8689L984.915 92.0891L980.738 99.1615Z" fill="white" fill-opacity="0.29"/>
<path d="M605.118 99.0826C600.464 99.0826 596.259 98.7151 592.503 97.9803C588.747 97.2454 586.093 96.0614 584.542 94.4284C583.072 92.877 581.929 90.1826 581.112 86.3449C580.296 82.5073 579.888 78.1798 579.888 73.3624C579.888 63.9725 581.542 54.9712 584.85 46.3586C588.159 37.746 592.71 30.4987 598.504 24.6165C604.301 18.8193 611.549 14.268 620.246 10.9628C628.944 7.65752 638.108 6.00327 647.74 6C652.394 6 656.599 6.36743 660.355 7.10229C664.111 7.83716 666.765 9.0211 668.316 10.6541C669.786 12.2055 670.929 14.9 671.745 18.7376C672.562 22.5752 672.97 26.9027 672.97 31.7202C672.97 41.1101 671.318 50.113 668.012 58.7288C664.707 67.3447 660.154 74.5904 654.354 80.466C648.556 86.2633 641.311 90.8162 632.617 94.1247C623.922 97.4332 614.756 99.0858 605.118 99.0826ZM589.931 71.4027C592.625 65.5238 595.891 59.7887 599.729 54.1972C603.567 48.6057 607.812 43.3996 612.467 38.5789C617.121 33.9248 622.245 29.6789 627.84 25.8413C633.435 22.0037 639.17 18.7376 645.045 16.0431C637.615 16.2881 630.329 17.8199 623.186 20.6385C616.043 23.4571 610.184 27.151 605.608 31.7202C600.79 36.3743 597.015 42.2124 594.281 49.2344C591.548 56.2564 590.097 63.6459 589.931 71.4027ZM607.812 89.0394C615.243 88.7945 622.531 87.2643 629.677 84.449C636.823 81.6337 642.681 77.9381 647.25 73.3624C652.067 68.7082 655.845 62.8702 658.582 55.8482C661.319 48.8261 662.767 41.4367 662.927 33.6798C660.233 39.5587 656.967 45.2955 653.129 50.8903C649.291 56.485 645.045 61.6895 640.391 66.5037C635.737 71.1578 630.614 75.4037 625.023 79.2413C619.431 83.0789 613.695 86.3449 607.812 89.0394Z" fill="white" fill-opacity="0.29"/>
<path d="M1025.23 324.083C1020.58 324.083 1016.37 323.715 1012.62 322.98C1008.86 322.245 1006.21 321.061 1004.65 319.428C1003.18 317.877 1002.04 315.183 1001.22 311.345C1000.41 307.507 1000 303.18 1000 298.362C1000 288.972 1001.65 279.971 1004.96 271.359C1008.27 262.746 1012.82 255.499 1018.62 249.617C1024.41 243.819 1031.66 239.268 1040.36 235.963C1049.06 232.658 1058.22 231.003 1067.85 231C1072.51 231 1076.71 231.367 1080.47 232.102C1084.22 232.837 1086.88 234.021 1088.43 235.654C1089.9 237.206 1091.04 239.9 1091.86 243.738C1092.67 247.575 1093.08 251.903 1093.08 256.72C1093.08 266.11 1091.43 275.113 1088.12 283.729C1084.82 292.345 1080.27 299.59 1074.47 305.466C1068.67 311.263 1061.42 315.816 1052.73 319.125C1044.03 322.433 1034.87 324.086 1025.23 324.083ZM1010.04 296.403C1012.74 290.524 1016 284.789 1019.84 279.197C1023.68 273.606 1027.92 268.4 1032.58 263.579C1037.23 258.925 1042.36 254.679 1047.95 250.841C1053.55 247.004 1059.28 243.738 1065.16 241.043C1057.73 241.288 1050.44 242.82 1043.3 245.638C1036.16 248.457 1030.3 252.151 1025.72 256.72C1020.9 261.374 1017.13 267.212 1014.39 274.234C1011.66 281.256 1010.21 288.646 1010.04 296.403ZM1027.92 314.039C1035.36 313.794 1042.64 312.264 1049.79 309.449C1056.94 306.634 1062.79 302.938 1067.36 298.362C1072.18 293.708 1075.96 287.87 1078.69 280.848C1081.43 273.826 1082.88 266.437 1083.04 258.68C1080.34 264.559 1077.08 270.296 1073.24 275.89C1069.4 281.485 1065.16 286.689 1060.5 291.504C1055.85 296.158 1050.73 300.404 1045.14 304.241C1039.54 308.079 1033.81 311.345 1027.92 314.039Z" fill="white" fill-opacity="0.29"/>
<path d="M733.23 315.083C728.576 315.083 724.371 314.715 720.615 313.98C716.859 313.245 714.206 312.061 712.654 310.428C711.184 308.877 710.041 306.183 709.225 302.345C708.408 298.507 708 294.18 708 289.362C708 279.972 709.654 270.971 712.963 262.359C716.271 253.746 720.823 246.499 726.617 240.617C732.414 234.819 739.661 230.268 748.359 226.963C757.056 223.658 766.221 222.003 775.852 222C780.506 222 784.711 222.367 788.467 223.102C792.223 223.837 794.877 225.021 796.428 226.654C797.898 228.206 799.041 230.9 799.858 234.738C800.674 238.575 801.083 242.903 801.083 247.72C801.083 257.11 799.43 266.113 796.125 274.729C792.819 283.345 788.267 290.59 782.466 296.466C776.669 302.263 769.423 306.816 760.729 310.125C752.035 313.433 742.868 315.086 733.23 315.083ZM718.043 287.403C720.738 281.524 724.004 275.789 727.841 270.197C731.679 264.606 735.925 259.4 740.579 254.579C745.233 249.925 750.357 245.679 755.952 241.841C761.547 238.004 767.282 234.738 773.158 232.043C765.728 232.288 758.441 233.82 751.298 236.638C744.155 239.457 738.296 243.151 733.72 247.72C728.903 252.374 725.127 258.212 722.394 265.234C719.66 272.256 718.21 279.646 718.043 287.403ZM735.925 305.039C743.355 304.794 750.643 303.264 757.789 300.449C764.935 297.634 770.793 293.938 775.362 289.362C780.18 284.708 783.957 278.87 786.694 271.848C789.431 264.826 790.879 257.437 791.039 249.68C788.345 255.559 785.079 261.296 781.241 266.89C777.404 272.485 773.158 277.689 768.504 282.504C763.85 287.158 758.727 291.404 753.135 295.241C747.544 299.079 741.807 302.345 735.925 305.039Z" fill="white" fill-opacity="0.29"/>
</g>
<g opacity="0.28">
<path d="M1153.76 256.291C1152.21 258.652 1150.45 262.157 1148.46 266.804C1147.89 265.648 1147.42 264.718 1147.03 264.012C1146.64 263.306 1146.12 262.49 1145.46 261.566C1144.81 260.642 1144.15 259.917 1143.49 259.391C1142.83 258.864 1142.02 258.415 1141.05 258.043C1140.09 257.67 1139.04 257.484 1137.9 257.484H1129.24C1128.88 257.484 1128.58 257.369 1128.35 257.138C1128.12 256.907 1128 256.611 1128 256.252V248.858C1128 248.499 1128.12 248.204 1128.35 247.973C1128.58 247.742 1128.88 247.626 1129.24 247.626H1137.9C1144.35 247.626 1149.64 250.514 1153.76 256.291ZM1197.32 287.059C1197.32 287.419 1197.2 287.714 1196.97 287.945L1184.59 300.268C1184.36 300.499 1184.06 300.614 1183.7 300.614C1183.37 300.614 1183.08 300.492 1182.83 300.249C1182.59 300.005 1182.46 299.716 1182.46 299.382V291.988C1181.64 291.988 1180.54 291.995 1179.17 292.008C1177.81 292.02 1176.76 292.033 1176.04 292.046C1175.32 292.059 1174.38 292.046 1173.22 292.008C1172.06 291.969 1171.14 291.905 1170.47 291.815C1169.8 291.725 1168.98 291.59 1168 291.411C1167.02 291.231 1166.2 290.994 1165.56 290.698C1164.91 290.403 1164.17 290.037 1163.32 289.601C1162.46 289.164 1161.7 288.651 1161.03 288.06C1160.36 287.47 1159.65 286.783 1158.91 286C1158.16 285.217 1157.44 284.325 1156.74 283.324C1158.26 280.936 1160.01 277.432 1162 272.811C1162.57 273.966 1163.04 274.897 1163.43 275.603C1163.82 276.309 1164.34 277.124 1165 278.048C1165.66 278.972 1166.31 279.698 1166.97 280.224C1167.63 280.75 1168.44 281.199 1169.41 281.572C1170.37 281.944 1171.43 282.13 1172.56 282.13H1182.46V274.736C1182.46 274.377 1182.58 274.082 1182.81 273.851C1183.04 273.62 1183.34 273.504 1183.7 273.504C1184.01 273.504 1184.32 273.632 1184.63 273.889L1196.97 286.174C1197.2 286.405 1197.32 286.7 1197.32 287.059ZM1197.32 252.555C1197.32 252.915 1197.2 253.21 1196.97 253.441L1184.59 265.764C1184.36 265.995 1184.06 266.11 1183.7 266.11C1183.37 266.11 1183.08 265.988 1182.83 265.745C1182.59 265.501 1182.46 265.212 1182.46 264.878V257.484H1172.56C1171.32 257.484 1170.2 257.677 1169.2 258.062C1168.19 258.447 1167.3 259.025 1166.53 259.795C1165.75 260.565 1165.1 261.354 1164.55 262.163C1164.01 262.972 1163.43 263.967 1162.81 265.148C1161.99 266.739 1160.98 268.934 1159.8 271.733C1159.05 273.427 1158.41 274.852 1157.88 276.007C1157.35 277.162 1156.66 278.51 1155.79 280.051C1154.93 281.591 1154.1 282.875 1153.32 283.902C1152.53 284.928 1151.58 285.994 1150.45 287.098C1149.33 288.202 1148.17 289.081 1146.97 289.736C1145.77 290.39 1144.4 290.929 1142.85 291.353C1141.31 291.777 1139.66 291.988 1137.9 291.988H1129.24C1128.88 291.988 1128.58 291.873 1128.35 291.642C1128.12 291.411 1128 291.116 1128 290.756V283.362C1128 283.003 1128.12 282.708 1128.35 282.477C1128.58 282.246 1128.88 282.13 1129.24 282.13H1137.9C1139.14 282.13 1140.26 281.938 1141.27 281.552C1142.27 281.167 1143.16 280.59 1143.94 279.82C1144.71 279.049 1145.37 278.26 1145.91 277.451C1146.45 276.643 1147.03 275.648 1147.65 274.467C1148.48 272.875 1149.48 270.68 1150.67 267.882C1151.41 266.187 1152.05 264.763 1152.58 263.607C1153.11 262.452 1153.81 261.104 1154.67 259.564C1155.53 258.023 1156.36 256.74 1157.15 255.713C1157.93 254.686 1158.89 253.621 1160.01 252.517C1161.13 251.413 1162.29 250.533 1163.49 249.879C1164.69 249.224 1166.06 248.685 1167.61 248.261C1169.16 247.838 1170.81 247.626 1172.56 247.626H1182.46V240.232C1182.46 239.873 1182.58 239.578 1182.81 239.347C1183.04 239.116 1183.34 239 1183.7 239C1184.01 239 1184.32 239.128 1184.63 239.385L1196.97 251.669C1197.2 251.901 1197.32 252.196 1197.32 252.555Z" fill="white" fill-opacity="0.29"/>
<path d="M1427.76 43.2905C1426.21 45.6524 1424.45 49.1567 1422.46 53.8035C1421.89 52.6482 1421.42 51.7176 1421.03 51.0116C1420.64 50.3056 1420.12 49.4905 1419.46 48.5663C1418.81 47.6421 1418.15 46.9168 1417.49 46.3905C1416.83 45.8642 1416.02 45.415 1415.05 45.0427C1414.09 44.6705 1413.04 44.4843 1411.9 44.4843H1403.24C1402.88 44.4843 1402.58 44.3688 1402.35 44.1377C1402.12 43.9067 1402 43.6115 1402 43.252V35.8583C1402 35.4989 1402.12 35.2037 1402.35 34.9726C1402.58 34.7415 1402.88 34.626 1403.24 34.626H1411.9C1418.35 34.626 1423.64 37.5142 1427.76 43.2905ZM1471.32 74.0592C1471.32 74.4187 1471.2 74.7139 1470.97 74.9449L1458.59 87.2678C1458.36 87.4989 1458.06 87.6144 1457.7 87.6144C1457.37 87.6144 1457.08 87.4925 1456.83 87.2486C1456.59 87.0047 1456.46 86.7159 1456.46 86.3821V78.9884C1455.64 78.9884 1454.54 78.9948 1453.17 79.0076C1451.81 79.0205 1450.76 79.0333 1450.04 79.0462C1449.32 79.059 1448.38 79.0462 1447.22 79.0076C1446.06 78.9691 1445.14 78.905 1444.47 78.8151C1443.8 78.7252 1442.98 78.5905 1442 78.4108C1441.02 78.2311 1440.2 77.9936 1439.56 77.6983C1438.91 77.4031 1438.17 77.0373 1437.32 76.6008C1436.46 76.1644 1435.7 75.6509 1435.03 75.0605C1434.36 74.47 1433.65 73.7833 1432.91 73.0002C1432.16 72.2172 1431.44 71.3251 1430.74 70.3239C1432.26 67.9363 1434.01 64.432 1436 59.8109C1436.57 60.9662 1437.04 61.8968 1437.43 62.6028C1437.82 63.3088 1438.34 64.1239 1439 65.0481C1439.66 65.9723 1440.31 66.6976 1440.97 67.2239C1441.63 67.7502 1442.44 68.1995 1443.41 68.5717C1444.37 68.944 1445.43 69.1301 1446.56 69.1301H1456.46V61.7364C1456.46 61.3769 1456.58 61.0817 1456.81 60.8507C1457.04 60.6196 1457.34 60.5041 1457.7 60.5041C1458.01 60.5041 1458.32 60.6324 1458.63 60.8892L1470.97 73.1735C1471.2 73.4046 1471.32 73.6998 1471.32 74.0592ZM1471.32 39.5552C1471.32 39.9146 1471.2 40.2098 1470.97 40.4409L1458.59 52.7638C1458.36 52.9948 1458.06 53.1103 1457.7 53.1103C1457.37 53.1103 1457.08 52.9884 1456.83 52.7445C1456.59 52.5006 1456.46 52.2118 1456.46 51.8781V44.4843H1446.56C1445.32 44.4843 1444.2 44.6769 1443.2 45.062C1442.19 45.447 1441.3 46.0247 1440.53 46.7949C1439.75 47.565 1439.1 48.3545 1438.55 49.1632C1438.01 49.9719 1437.43 50.9667 1436.81 52.1476C1435.99 53.7393 1434.98 55.9343 1433.8 58.7327C1433.05 60.4271 1432.41 61.8519 1431.88 63.0072C1431.35 64.1624 1430.66 65.5102 1429.79 67.0506C1428.93 68.591 1428.1 69.8746 1427.32 70.9015C1426.53 71.9284 1425.58 72.9938 1424.45 74.0978C1423.33 75.2017 1422.17 76.081 1420.97 76.7356C1419.77 77.3903 1418.4 77.9294 1416.85 78.353C1415.31 78.7766 1413.66 78.9884 1411.9 78.9884H1403.24C1402.88 78.9884 1402.58 78.8729 1402.35 78.6418C1402.12 78.4108 1402 78.1155 1402 77.7561V70.3624C1402 70.003 1402.12 69.7077 1402.35 69.4767C1402.58 69.2456 1402.88 69.1301 1403.24 69.1301H1411.9C1413.14 69.1301 1414.26 68.9375 1415.27 68.5525C1416.27 68.1674 1417.16 67.5897 1417.94 66.8195C1418.71 66.0494 1419.37 65.2599 1419.91 64.4512C1420.45 63.6426 1421.03 62.6477 1421.65 61.4668C1422.48 59.8751 1423.48 57.6801 1424.67 54.8818C1425.41 53.1874 1426.05 51.7625 1426.58 50.6073C1427.11 49.452 1427.81 48.1042 1428.67 46.5638C1429.53 45.0234 1430.36 43.7398 1431.15 42.7129C1431.93 41.686 1432.89 40.6206 1434.01 39.5167C1435.13 38.4127 1436.29 37.5334 1437.49 36.8788C1438.69 36.2241 1440.06 35.685 1441.61 35.2614C1443.16 34.8378 1444.81 34.626 1446.56 34.626H1456.46V27.2323C1456.46 26.8729 1456.58 26.5776 1456.81 26.3466C1457.04 26.1155 1457.34 26 1457.7 26C1458.01 26 1458.32 26.1284 1458.63 26.3851L1470.97 38.6695C1471.2 38.9005 1471.32 39.1958 1471.32 39.5552Z" fill="white" fill-opacity="0.29"/>
<path d="M1105.5 153.701C1112.27 160.49 1117.79 171.594 1114.63 178.179C1106.16 195.83 1042.99 226.764 1037.61 221.415C1032.25 216.07 1063.29 153.022 1080.98 144.569C1087.59 141.434 1098.72 146.992 1105.52 153.692L1105.5 153.758L1105.5 153.701ZM1138.98 146.261C1137.88 142.199 1135.07 138.103 1130.88 137.614C1123.21 136.73 1111.11 150.266 1111.97 153.478C1112.83 156.756 1129.91 162.386 1136.26 157.825C1139.55 155.478 1139.98 150.413 1138.91 146.356L1138.98 146.261ZM1115.21 108.75C1120.91 110.29 1126.67 114.205 1127.36 120.068C1128.6 130.8 1109.58 147.715 1105.06 146.503C1100.55 145.311 1092.59 121.398 1099.02 112.475C1102.33 107.857 1109.5 107.22 1115.21 108.731L1115.21 108.75Z" fill="white" fill-opacity="0.29"/>
<path d="M1397.5 145.701C1404.27 152.49 1409.79 163.594 1406.63 170.179C1398.16 187.83 1334.99 218.764 1329.61 213.415C1324.25 208.07 1355.29 145.022 1372.98 136.569C1379.59 133.434 1390.72 138.992 1397.52 145.692L1397.5 145.758L1397.5 145.701ZM1430.98 138.261C1429.88 134.199 1427.07 130.103 1422.88 129.614C1415.21 128.73 1403.11 142.266 1403.97 145.478C1404.83 148.756 1421.91 154.386 1428.26 149.825C1431.55 147.478 1431.98 142.413 1430.91 138.356L1430.98 138.261ZM1407.21 100.75C1412.91 102.29 1418.67 106.205 1419.36 112.068C1420.6 122.8 1401.58 139.715 1397.06 138.503C1392.55 137.311 1384.59 113.398 1391.02 104.475C1394.33 99.8571 1401.5 99.2205 1407.21 100.731L1407.21 100.75Z" fill="white" fill-opacity="0.29"/>
<path d="M1307.31 33.9443C1297.32 33.9443 1287.73 37.9149 1280.66 44.9826C1273.6 52.0503 1269.63 61.6362 1269.63 71.6315C1269.63 81.6267 1273.6 91.2126 1280.66 98.2803C1287.73 105.348 1297.32 109.319 1307.31 109.319C1317.31 109.319 1326.89 105.348 1333.96 98.2803C1341.03 91.2126 1345 81.6267 1345 71.6315C1345 61.6362 1341.03 52.0503 1333.96 44.9826C1326.89 37.9149 1317.31 33.9443 1307.31 33.9443ZM1293.61 41.6231L1304.97 48.2466V56.2551L1291.92 65.4508L1284.57 62.7797L1281.62 50.9459C1284.84 46.9478 1288.95 43.7556 1293.61 41.6231ZM1274.5 74.8914L1283.1 67.2597L1290.39 69.9026L1295.31 85.4014L1291.93 90.4562H1280.23C1277.02 85.8455 1275.04 80.4857 1274.5 74.8914ZM1299.65 103.713L1295.81 93.132L1299.15 88.1243H1315.49L1318.84 93.132L1315 103.708C1309.95 104.915 1304.69 104.92 1299.65 103.713ZM1334.39 90.4515H1322.72L1319.33 85.3873L1324.15 69.9026L1331.54 67.2456L1340.13 74.8867C1339.58 80.481 1337.61 85.8408 1334.39 90.4515ZM1333.03 50.9742L1330.08 62.7656L1322.61 65.4508L1309.67 56.2551V48.2466L1321.02 41.6231C1325.7 43.7618 1329.81 46.9641 1333.03 50.9742Z" fill="white" fill-opacity="0.29"/>
<path d="M1417.69 251C1407.69 251 1398.11 254.971 1391.04 262.038C1383.97 269.106 1380 278.692 1380 288.687C1380 298.682 1383.97 308.268 1391.04 315.336C1398.11 322.404 1407.69 326.374 1417.69 326.374C1427.68 326.374 1437.27 322.404 1444.34 315.336C1451.4 308.268 1455.37 298.682 1455.37 288.687C1455.37 278.692 1451.4 269.106 1444.34 262.038C1437.27 254.971 1427.68 251 1417.69 251ZM1403.99 258.679L1415.34 265.302V273.311L1402.3 282.506L1394.95 279.835L1392 268.002C1395.22 264.003 1399.32 260.811 1403.99 258.679ZM1384.87 291.947L1393.48 284.315L1400.76 286.958L1405.68 302.457L1402.31 307.512H1390.61C1387.39 302.901 1385.42 297.541 1384.87 291.947ZM1410.02 320.768L1406.18 310.188L1409.53 305.18H1425.86L1429.21 310.188L1425.37 320.764C1420.33 321.971 1415.07 321.975 1410.02 320.768ZM1444.77 307.507H1433.09L1429.7 302.443L1434.53 286.958L1441.91 284.301L1450.5 291.942C1449.96 297.537 1447.98 302.896 1444.77 307.507ZM1443.4 268.03L1440.45 279.821L1432.99 282.506L1420.05 273.311V265.302L1431.4 258.679C1436.07 260.817 1440.18 264.02 1443.4 268.03Z" fill="white" fill-opacity="0.29"/>
<path d="M1178.31 172.115C1174.84 170.065 1172.86 167.281 1172.37 163.763C1171.88 160.246 1172.88 156.911 1175.38 153.76L1197.57 125.981C1200.57 122.302 1204.36 120.043 1208.94 119.205C1213.53 118.368 1217.86 119.154 1221.94 121.564L1262.36 145.438C1266.44 147.85 1269.22 151.264 1270.7 155.68C1272.18 160.096 1272.03 164.505 1270.25 168.907L1256.64 201.749C1255.09 205.466 1252.65 207.958 1249.33 209.225C1246.02 210.492 1242.62 210.099 1239.15 208.047C1237.72 207.203 1236.55 206.167 1235.62 204.94C1234.69 203.713 1234.02 202.291 1233.59 200.675L1229.78 186.156L1202.01 169.757L1187.45 173.425C1185.84 173.832 1184.26 173.927 1182.74 173.711C1181.22 173.494 1179.74 172.962 1178.31 172.115ZM1243.47 177.89C1244.63 178.573 1245.83 178.759 1247.07 178.446C1248.31 178.133 1249.27 177.404 1249.94 176.26C1250.61 175.116 1250.79 173.926 1250.46 172.688C1250.14 171.451 1249.4 170.491 1248.24 169.807C1247.09 169.124 1245.89 168.94 1244.65 169.254C1243.41 169.569 1242.45 170.296 1241.77 171.437C1241.1 172.578 1240.92 173.77 1241.25 175.013C1241.57 176.256 1242.32 177.215 1243.47 177.89ZM1242.46 160.943C1243.62 161.626 1244.82 161.811 1246.06 161.498C1247.31 161.185 1248.26 160.457 1248.93 159.313C1249.61 158.169 1249.78 156.978 1249.46 155.741C1249.13 154.504 1248.39 153.543 1247.24 152.86C1246.08 152.177 1244.88 151.992 1243.64 152.307C1242.4 152.621 1241.45 153.349 1240.77 154.49C1240.09 155.631 1239.92 156.823 1240.24 158.066C1240.57 159.309 1241.31 160.268 1242.46 160.943ZM1205.7 155.583L1211.83 159.201L1216 152.128L1223.15 156.348L1226.73 150.286L1219.58 146.066L1223.76 138.994L1217.63 135.376L1213.46 142.449L1206.31 138.229L1202.73 144.291L1209.88 148.511L1205.7 155.583Z" fill="white" fill-opacity="0.29"/>
<path d="M1133.12 110.083C1128.46 110.083 1124.26 109.715 1120.5 108.98C1116.75 108.245 1114.09 107.061 1112.54 105.428C1111.07 103.877 1109.93 101.183 1109.11 97.3449C1108.3 93.5073 1107.89 89.1798 1107.89 84.3624C1107.89 74.9725 1109.54 65.9712 1112.85 57.3586C1116.16 48.746 1120.71 41.4987 1126.5 35.6165C1132.3 29.8193 1139.55 25.268 1148.25 21.9628C1156.94 18.6575 1166.11 17.0033 1175.74 17C1180.39 17 1184.6 17.3674 1188.36 18.1023C1192.11 18.8372 1194.76 20.0211 1196.32 21.6541C1197.79 23.2055 1198.93 25.9 1199.75 29.7376C1200.56 33.5752 1200.97 37.9027 1200.97 42.7202C1200.97 52.1101 1199.32 61.113 1196.01 69.7288C1192.71 78.3447 1188.15 85.5904 1182.35 91.466C1176.56 97.2633 1169.31 101.816 1160.62 105.125C1151.92 108.433 1142.76 110.086 1133.12 110.083ZM1117.93 82.4027C1120.63 76.5238 1123.89 70.7887 1127.73 65.1972C1131.57 59.6057 1135.81 54.3996 1140.47 49.5789C1145.12 44.9248 1150.25 40.6789 1155.84 36.8413C1161.43 33.0037 1167.17 29.7376 1173.05 27.0431C1165.62 27.2881 1158.33 28.8199 1151.19 31.6385C1144.04 34.4571 1138.18 38.151 1133.61 42.7202C1128.79 47.3743 1125.01 53.2124 1122.28 60.2344C1119.55 67.2564 1118.1 74.6459 1117.93 82.4027ZM1135.81 100.039C1143.24 99.7945 1150.53 98.2643 1157.68 95.449C1164.82 92.6337 1170.68 88.9381 1175.25 84.3624C1180.07 79.7082 1183.84 73.8702 1186.58 66.8482C1189.32 59.8261 1190.77 52.4367 1190.93 44.6798C1188.23 50.5587 1184.97 56.2955 1181.13 61.8903C1177.29 67.485 1173.05 72.6895 1168.39 77.5037C1163.74 82.1578 1158.61 86.4037 1153.02 90.2413C1147.43 94.0789 1141.69 97.3449 1135.81 100.039Z" fill="white" fill-opacity="0.29"/>
<path d="M1261.23 326.083C1256.58 326.083 1252.37 325.715 1248.62 324.98C1244.86 324.245 1242.21 323.061 1240.65 321.428C1239.18 319.877 1238.04 317.183 1237.22 313.345C1236.41 309.507 1236 305.18 1236 300.362C1236 290.972 1237.65 281.971 1240.96 273.359C1244.27 264.746 1248.82 257.499 1254.62 251.617C1260.41 245.819 1267.66 241.268 1276.36 237.963C1285.06 234.658 1294.22 233.003 1303.85 233C1308.51 233 1312.71 233.367 1316.47 234.102C1320.22 234.837 1322.88 236.021 1324.43 237.654C1325.9 239.206 1327.04 241.9 1327.86 245.738C1328.67 249.575 1329.08 253.903 1329.08 258.72C1329.08 268.11 1327.43 277.113 1324.12 285.729C1320.82 294.345 1316.27 301.59 1310.47 307.466C1304.67 313.263 1297.42 317.816 1288.73 321.125C1280.03 324.433 1270.87 326.086 1261.23 326.083ZM1246.04 298.403C1248.74 292.524 1252 286.789 1255.84 281.197C1259.68 275.606 1263.92 270.4 1268.58 265.579C1273.23 260.925 1278.36 256.679 1283.95 252.841C1289.55 249.004 1295.28 245.738 1301.16 243.043C1293.73 243.288 1286.44 244.82 1279.3 247.638C1272.16 250.457 1266.3 254.151 1261.72 258.72C1256.9 263.374 1253.13 269.212 1250.39 276.234C1247.66 283.256 1246.21 290.646 1246.04 298.403ZM1263.92 316.039C1271.36 315.794 1278.64 314.264 1285.79 311.449C1292.94 308.634 1298.79 304.938 1303.36 300.362C1308.18 295.708 1311.96 289.87 1314.69 282.848C1317.43 275.826 1318.88 268.437 1319.04 260.68C1316.34 266.559 1313.08 272.296 1309.24 277.89C1305.4 283.485 1301.16 288.689 1296.5 293.504C1291.85 298.158 1286.73 302.404 1281.14 306.241C1275.54 310.079 1269.81 313.345 1263.92 316.039Z" fill="white" fill-opacity="0.29"/>
</g>
</g>
<defs>
<clipPath id="clip0_457_3845">
<rect width="1440" height="335" fill="white"/>
</clipPath>
</defs>
</svg>
