<svg width="66" height="53" viewBox="0 0 66 53" fill="none" xmlns="http://www.w3.org/2000/svg">
<path d="M19.8516 4.10911C3.69421 9.61333 -1.57269 26.0048 0.641182 32.55C2.85506 39.0952 7.74633 42.903 14.2096 40.7013C20.6728 38.4995 24.4582 39.0337 26.1185 43.9423C28.3319 50.4861 34.8387 53.7437 41.3019 51.5419C62.3071 44.3863 68.1263 29.6318 64.2525 18.1794C57.6101 -1.45439 39.2362 -2.49447 19.8516 4.10911ZM18.0262 12.0303C18.5575 11.8497 19.1193 11.7766 19.6795 11.8153C20.2397 11.8539 20.7873 12.0035 21.2909 12.2555C21.7945 12.5076 22.2443 12.857 22.6146 13.284C22.9849 13.711 23.2684 14.2071 23.4488 14.7439C24.2134 17.0044 23.0239 19.4509 20.7932 20.2108C18.5624 20.9707 16.1343 19.7552 15.3701 17.496C15.1876 16.9599 15.1116 16.3931 15.1463 15.8282C15.1811 15.2632 15.326 14.7112 15.5726 14.2035C15.8193 13.6959 16.163 13.2427 16.584 12.8698C17.005 12.4969 17.495 12.2116 18.0262 12.0303ZM30.9501 7.62766C31.4814 7.44703 32.0432 7.37394 32.6034 7.41259C33.1636 7.45123 33.7112 7.60084 34.2148 7.85286C34.7184 8.10488 35.1682 8.45437 35.5385 8.88134C35.9088 9.30831 36.1922 9.80439 36.3727 10.3412C36.5554 10.8774 36.6316 11.4442 36.5969 12.0093C36.5623 12.5744 36.4175 13.1266 36.1709 13.6343C35.9242 14.1421 35.5805 14.5955 35.1595 14.9685C34.7384 15.3415 34.2483 15.6268 33.7171 15.8081C33.1857 15.9886 32.6238 16.0615 32.0636 16.0227C31.5035 15.9839 30.9559 15.8341 30.4524 15.5819C29.9488 15.3297 29.4991 14.9801 29.129 14.553C28.7589 14.1259 28.4755 13.6297 28.2953 13.0929C28.1128 12.5569 28.0368 11.9902 28.0715 11.4254C28.1062 10.8606 28.251 10.3086 28.4975 9.80102C28.7441 9.29346 29.0876 8.84027 29.5084 8.46735C29.9292 8.09443 30.4191 7.8091 30.9501 7.62766ZM46.09 9.76798C46.6214 9.58711 47.1835 9.51386 47.7439 9.55243C48.3043 9.591 48.8522 9.74063 49.356 9.99275C49.8598 10.2449 50.3098 10.5945 50.6801 11.0217C51.0505 11.4489 51.334 11.9453 51.5143 12.4824C51.6968 13.0186 51.7728 13.5855 51.738 14.1505C51.7032 14.7156 51.5583 15.2678 51.3115 15.7755C51.0646 16.2831 50.7208 16.7364 50.2996 17.1093C49.8785 17.4821 49.3882 17.7673 48.857 17.9485C48.3257 18.1289 47.7639 18.2018 47.2039 18.163C46.6438 18.1243 46.0964 17.9746 45.5929 17.7225C45.0894 17.4705 44.6397 17.121 44.2696 16.6941C43.8994 16.2672 43.616 15.7712 43.4356 15.2345C43.253 14.6984 43.1768 14.1317 43.2113 13.5667C43.2459 13.0018 43.3906 12.4497 43.6371 11.942C43.8836 11.4343 44.2272 10.9809 44.648 10.6079C45.0689 10.2349 45.5589 9.94946 46.09 9.76798ZM10.0371 25.7002C10.5682 25.5198 11.1298 25.4469 11.6898 25.4856C12.2498 25.5243 12.7971 25.6739 13.3005 25.9259C13.8039 26.1778 14.2536 26.5271 14.6238 26.9538C14.994 27.3806 15.2774 27.8764 15.458 28.4129C16.2226 30.6734 15.0331 33.1199 12.8036 33.8794C10.5742 34.6389 8.14472 33.4238 7.38055 31.1646C7.19828 30.6285 7.12242 30.0619 7.15731 29.497C7.19219 28.9322 7.33713 28.3803 7.58384 27.8728C7.83056 27.3653 8.1742 26.9122 8.59514 26.5394C9.01608 26.1667 9.50605 25.8815 10.0371 25.7002ZM35.7666 35.1814C38.4437 34.2694 41.3558 35.7263 42.2738 38.4402C43.1904 41.1502 41.7643 44.0865 39.0872 44.9985C36.4101 45.9105 33.4975 44.4522 32.5809 41.7422C32.3619 41.0988 32.2707 40.4187 32.3123 39.7407C32.3539 39.0627 32.5276 38.4002 32.8234 37.7909C33.1193 37.1816 33.5315 36.6376 34.0365 36.1898C34.5415 35.7421 35.1294 35.3994 35.7666 35.1814Z" fill="#6A43D7" fill-opacity="0.6"/>
</svg>
