<svg width="62" height="57" viewBox="0 0 62 57" fill="none" xmlns="http://www.w3.org/2000/svg">
<path d="M4.30287 33.3084C2.18948 32.0559 0.982842 30.3548 0.682963 28.2052C0.383085 26.0556 0.995394 24.0181 2.51989 22.0926L16.0311 5.11858C17.8575 2.87012 20.1654 1.48999 22.955 0.978199C25.7446 0.466409 28.3817 0.946803 30.8664 2.41938L55.4812 17.0076C57.9676 18.4812 59.6608 20.5673 60.561 23.2658C61.4611 25.9644 61.3702 28.6584 60.288 31.348L51.9982 51.4164C51.0528 53.6874 49.5698 55.2101 47.5491 55.9843C45.5284 56.7586 43.4618 56.5187 41.3494 55.2645C40.4792 54.7488 39.7617 54.1159 39.197 53.366C38.6323 52.6161 38.2213 51.7474 37.964 50.76L35.6399 41.8881L18.7328 31.8679L9.86835 34.1087C8.88341 34.3577 7.92691 34.4159 6.99884 34.2834C6.07078 34.1508 5.17212 33.8258 4.30287 33.3084ZM43.9783 36.8373C44.6828 37.2548 45.4132 37.3679 46.1696 37.1767C46.9261 36.9855 47.5089 36.5404 47.9181 35.8414C48.3272 35.1423 48.4335 34.4148 48.2368 33.6587C48.0401 32.9026 47.5896 32.3158 46.8851 31.8983C46.1806 31.4808 45.451 31.3681 44.6963 31.5603C43.9415 31.7525 43.3578 32.1972 42.9454 32.8942C42.5329 33.5913 42.4261 34.3197 42.6252 35.0794C42.8242 35.8391 43.2752 36.425 43.9783 36.8373ZM43.3658 26.4817C44.0703 26.8992 44.8007 27.0123 45.5572 26.8211C46.3136 26.6299 46.8964 26.1848 47.3056 25.4857C47.7147 24.7867 47.821 24.0592 47.6243 23.3031C47.4277 22.547 46.9771 21.9602 46.2726 21.5427C45.5682 21.1252 44.8385 21.0125 44.0838 21.2047C43.329 21.3969 42.7454 21.8416 42.3329 22.5386C41.9204 23.2357 41.8137 23.9641 42.0127 24.7238C42.2117 25.4835 42.6627 26.0694 43.3658 26.4817ZM20.9796 23.2069L24.7091 25.4172L27.2526 21.0956L31.6037 23.6743L33.7838 19.9701L29.4327 17.3913L31.9762 13.0697L28.2466 10.8594L25.7032 15.181L21.3521 12.6023L19.172 16.3065L23.5231 18.8852L20.9796 23.2069Z" fill="#FBCE3E" fill-opacity="0.6"/>
</svg>
