<svg width="52" height="52" viewBox="0 0 52 52" fill="none" xmlns="http://www.w3.org/2000/svg">
<path fill-rule="evenodd" clip-rule="evenodd" d="M43.3333 1.34346e-08C45.5439 -0.000122865 47.671 0.842678 49.2794 2.35596C50.8878 3.86925 51.8559 5.93862 51.9856 8.14067L52 8.64803V43.2401C52.0001 45.446 51.1555 47.5685 49.639 49.1734C48.1224 50.7783 46.0486 51.7443 43.8418 51.8737L43.3333 51.8882H8.66667C6.45606 51.8883 4.32896 51.0455 2.72058 49.5322C1.1122 48.0189 0.144134 45.9495 0.0144448 43.7475L1.34635e-08 43.2401V8.64803C-0.000123129 6.44217 0.844495 4.31965 2.36104 2.71473C3.87759 1.10981 5.95142 0.143824 8.15822 0.0144137L8.66667 1.34346e-08H43.3333ZM15.8889 31.7094C14.8117 31.7095 13.7731 32.1099 12.9757 32.8326C12.1783 33.5553 11.6792 34.5484 11.5758 35.6183L11.5556 36.0334L11.5758 36.4774C11.6797 37.5469 12.179 38.5395 12.9763 39.2618C13.7737 39.984 14.812 40.3841 15.8889 40.3841C16.9658 40.3841 18.0041 39.984 18.8014 39.2618C19.5988 38.5395 20.0981 37.5469 20.202 36.4774L20.2222 36.0623L20.202 35.6183C20.0986 34.5484 19.5995 33.5553 18.8021 32.8326C18.0047 32.1099 16.9661 31.7095 15.8889 31.7094ZM36.1111 31.7094C35.0339 31.7095 33.9953 32.1099 33.1979 32.8326C32.4005 33.5553 31.9014 34.5484 31.798 35.6183L31.7778 36.0623C31.7783 37.1727 32.207 38.2404 32.975 39.0441C33.7429 39.8477 34.7913 40.3258 35.9029 40.3791C37.0144 40.4325 38.104 40.0571 38.9457 39.3307C39.7874 38.6043 40.3168 37.5826 40.4242 36.4774L40.4444 36.0334C40.4444 34.8866 39.9879 33.7868 39.1752 32.9759C38.3626 32.165 37.2604 31.7094 36.1111 31.7094ZM26 21.6201C24.9228 21.6201 23.8842 22.0205 23.0868 22.7432C22.2894 23.4659 21.7903 24.459 21.6869 25.529L21.6667 25.9729C21.6672 27.0834 22.0959 28.151 22.8638 28.9547C23.6318 29.7584 24.6802 30.2364 25.7918 30.2898C26.9033 30.3431 27.9928 29.9677 28.8346 29.2414C29.6763 28.515 30.2057 27.4933 30.3131 26.388L30.3333 25.9441C30.3333 24.7973 29.8768 23.6974 29.0641 22.8865C28.2515 22.0756 27.1493 21.6201 26 21.6201ZM15.8889 11.5307C14.8117 11.5308 13.7731 11.9312 12.9757 12.6538C12.1783 13.3765 11.6792 14.3697 11.5758 15.4396L11.5556 15.8547L11.5758 16.2986C11.6797 17.3682 12.179 18.3608 12.9763 19.0831C13.7737 19.8053 14.812 20.2054 15.8889 20.2054C16.9658 20.2054 18.0041 19.8053 18.8014 19.0831C19.5988 18.3608 20.0981 17.3682 20.202 16.2986L20.2222 15.8835L20.202 15.4396C20.0986 14.3697 19.5995 13.3765 18.8021 12.6538C18.0047 11.9312 16.9661 11.5308 15.8889 11.5307ZM36.1111 11.5307C35.0339 11.5308 33.9953 11.9312 33.1979 12.6538C32.4005 13.3765 31.9014 14.3697 31.798 15.4396L31.7778 15.8835C31.7783 16.994 32.207 18.0617 32.975 18.8653C33.7429 19.669 34.7913 20.1471 35.9029 20.2004C37.0144 20.2538 38.104 19.8784 38.9457 19.152C39.7874 18.4256 40.3168 17.4039 40.4242 16.2986L40.4444 15.8547C40.4444 14.7079 39.9879 13.6081 39.1752 12.7972C38.3626 11.9863 37.2604 11.5307 36.1111 11.5307Z" fill="#6A43D7" fill-opacity="0.6"/>
</svg>
