<svg width="32" height="32" viewBox="0 0 32 32" fill="none" xmlns="http://www.w3.org/2000/svg">
<path d="M22.5476 28.0756C21.1247 28.0756 19.9762 26.6356 19.9762 24.8527C19.9762 23.087 21.1247 21.647 22.5476 21.647C23.9705 21.647 25.119 23.087 25.119 24.8527C25.119 26.6356 23.9705 28.0756 22.5476 28.0756ZM16.119 14.567C13.9933 14.567 12.2619 13.127 12.2619 11.3613C12.2619 9.57845 13.9933 8.13845 16.119 8.13845C18.2447 8.13845 19.9762 9.57845 19.9762 11.3613C19.9762 13.127 18.2447 14.567 16.119 14.567ZM9.69045 28.0756C8.26759 28.0756 7.11902 26.6356 7.11902 24.8527C7.11902 23.087 8.26759 21.647 9.69045 21.647C11.1133 21.647 12.2619 23.087 12.2619 24.8527C12.2619 26.6356 11.1133 28.0756 9.69045 28.0756ZM16.119 9.42416C16.8219 9.42416 17.4047 10.007 17.4047 10.7099C17.4047 11.4127 16.8219 11.9956 16.119 11.9956C15.4162 11.9956 14.8333 11.4127 14.8333 10.7099C14.8333 10.007 15.4162 9.42416 16.119 9.42416ZM27.6905 15.8527C27.1419 15.8527 26.6105 15.9727 26.1305 16.1956C25.3076 15.1499 24.1933 14.2584 22.8562 13.5727C23.8333 12.2013 24.4162 10.5384 24.4162 8.73845V8.63559C26.2847 8.24131 27.6905 6.57845 27.6905 4.57273C27.6905 2.29273 25.8219 0.424163 23.5419 0.424163C22.359 0.424163 21.2619 0.921306 20.5419 1.70988C19.2197 0.8696 17.6856 0.42334 16.119 0.42334C14.5525 0.42334 13.0183 0.8696 11.6962 1.70988C10.9762 0.921306 9.87902 0.424163 8.69617 0.424163C6.41617 0.424163 4.5476 2.29273 4.5476 4.57273C4.5476 6.56131 5.95331 8.22416 7.80474 8.63559V8.73845C7.80474 10.5384 8.40474 12.2184 9.36474 13.5727C8.04474 14.2584 6.93045 15.1499 6.10759 16.1956C5.52176 15.9317 4.87908 15.819 4.23841 15.8679C3.59774 15.9167 2.97958 16.1256 2.44054 16.4753C1.90151 16.825 1.45884 17.3043 1.15308 17.8694C0.847323 18.4345 0.688257 19.0674 0.690452 19.7099C0.690452 21.8527 2.40474 23.567 4.5476 23.567H4.65045C4.58188 23.9784 4.5476 24.4242 4.5476 24.8527C4.5476 28.4013 6.84474 31.2813 9.69045 31.2813C11.4219 31.2813 12.9476 30.2013 13.8905 28.5556C14.6105 28.6584 15.3476 28.7099 16.119 28.7099C16.8905 28.7099 17.6276 28.6584 18.3476 28.5556C19.2905 30.2013 20.8162 31.2813 22.5476 31.2813C25.3933 31.2813 27.6905 28.4013 27.6905 24.8527C27.6905 24.4242 27.6562 23.9784 27.5876 23.567H27.6905C29.8333 23.567 31.5476 21.8527 31.5476 19.7099C31.5476 17.567 29.8333 15.8527 27.6905 15.8527Z" fill="#FBCE3E" fill-opacity="0.6"/>
</svg>
