<svg width="49" height="40" viewBox="0 0 49 40" fill="none" xmlns="http://www.w3.org/2000/svg">
<path d="M23.1215 1.64118C28.8251 0.850071 35.6386 0 36.6799 0H36.7436C39.1887 0.049137 41.1732 0.439776 43.5056 2.22591C44.9389 3.32166 46.0904 5.02672 46.9258 7.30176C47.6486 9.27216 48.9349 20.2739 48.9667 22.5711L48.979 23.1607V23.1706C49.028 25.0967 49.1088 28.3128 47.6976 30.9612C45.0516 35.9241 39.2426 36.4621 36.8685 36.4621H36.5843C26.8945 36.4621 22.2027 37.7446 18.4272 38.7765H18.4199C16.0237 39.4349 13.9535 40 11.3418 40C10.646 40 9.94525 39.9607 9.21024 39.8796C6.22857 39.5529 3.9427 37.44 2.76669 33.9242C1.89693 31.3199 0.37792 19.93 0.110868 17.0383C-0.232135 13.3063 0.101067 10.4441 2.83529 7.68994C4.31755 6.19372 6.18937 5.03655 8.54384 4.15208C10.2515 3.5133 17.4129 2.43228 23.1215 1.64118ZM18.2949 12.2843C17.996 12.5029 18.1161 13.4021 18.1675 13.7829L18.1798 13.8837L18.4983 16.5813C18.8658 19.7359 19.4244 24.5292 19.5175 25.2147L19.5395 25.394L19.5763 25.6962C19.6865 26.5684 19.8556 27.9197 20.2647 28.1383C20.3268 28.1694 20.4003 28.1858 20.4852 28.1875C21.0316 28.1875 22.0067 27.5487 22.5604 27.1187L31.3339 21.0282C31.8893 20.64 32.447 20.2551 33.0073 19.8735L33.0367 19.8563L33.2204 19.7408C33.6026 19.5099 34.0706 19.2175 34.0632 18.5984C34.0485 17.9448 33.5242 17.7164 33.1371 17.5517C33.0526 17.5179 32.97 17.4793 32.8897 17.4363C30.1996 16.0555 21.5461 12.982 19.8237 12.4243L19.7992 12.4145C19.4464 12.2843 19.0768 12.2057 18.7016 12.1811C18.5589 12.1751 18.4176 12.211 18.2949 12.2843Z" fill="#6A43D7" fill-opacity="0.6"/>
</svg>
